<svg width="20" height="20" viewBox="0 0 20 20" fill="none" xmlns="http://www.w3.org/2000/svg">
<g clip-path="url(#clip0_548_10541)">
<path d="M6.92992 9.09697C6.86146 9.16548 6.82617 9.26038 6.83326 9.35697C6.97396 10.5366 7.52499 11.6292 8.38992 12.4436C8.46992 12.5236 8.55326 12.597 8.63659 12.6736C7.69912 12.666 6.77727 12.9138 5.96992 13.3903C5.87778 13.4522 5.82251 13.556 5.82251 13.667C5.82251 13.778 5.87778 13.8817 5.96992 13.9436C6.83649 14.4513 7.82954 14.7022 8.83326 14.667H9.21659C8.96196 15.0647 8.82875 15.5281 8.83326 16.0003C8.83326 16.1844 8.98249 16.3336 9.16659 16.3336H9.24659C9.93098 16.3185 10.5816 16.0333 11.0566 15.5403C11.0999 15.497 11.1399 15.4503 11.1799 15.4036V17.3336C11.1799 17.5177 11.3292 17.667 11.5133 17.667C11.6974 17.667 11.8466 17.5177 11.8466 17.3336V15.4003C11.8866 15.447 11.9299 15.4936 11.9733 15.537C12.4428 16.0284 13.0872 16.3147 13.7666 16.3336H13.8333C14.0174 16.3336 14.1666 16.1844 14.1666 16.0003C14.1721 15.5279 14.0388 15.0643 13.7833 14.667H14.1666C15.1658 14.6997 16.1539 14.4489 17.0166 13.9436C17.1087 13.8817 17.164 13.778 17.164 13.667C17.164 13.556 17.1087 13.4522 17.0166 13.3903C16.2092 12.9138 15.2874 12.666 14.3499 12.6736C14.4333 12.597 14.5166 12.5236 14.5966 12.4436C15.4664 11.6313 16.0223 10.5384 16.1666 9.35697C16.1737 9.26038 16.1384 9.16548 16.0699 9.09697C16.0014 9.02851 15.9065 8.99323 15.8099 9.00031C14.6714 9.13095 13.6123 9.64873 12.8099 10.467C12.8099 10.367 12.8099 10.267 12.8099 10.167C12.8099 8.70697 12.4199 7.35697 11.7433 6.46364C11.6768 6.38541 11.5793 6.34033 11.4766 6.34033C11.3739 6.34033 11.2764 6.38541 11.2099 6.46364C10.5433 7.35697 10.1433 8.70697 10.1433 10.167V10.467C9.34089 9.64873 8.28179 9.13095 7.14326 9.00031C7.06279 9.00566 6.987 9.04001 6.92992 9.09697ZM6.89659 13.667C7.51642 13.4387 8.17278 13.3257 8.83326 13.3336C9.09408 13.3329 9.35466 13.3496 9.61326 13.3836C9.87978 13.5387 10.1598 13.6692 10.4499 13.7736C10.2921 13.8219 10.1319 13.8619 9.96992 13.8936H9.94992C8.92992 14.0879 7.87672 14.0097 6.89659 13.667ZM10.5633 15.0703C10.2788 15.3584 9.91602 15.5566 9.51992 15.6403C9.60628 15.244 9.8081 14.8821 10.0999 14.6003C10.1227 14.5753 10.1472 14.5519 10.1733 14.5303C10.4832 14.4671 10.7867 14.3756 11.0799 14.257C10.9758 14.5642 10.8011 14.8428 10.5699 15.0703H10.5633ZM12.4233 15.0703C12.1934 14.843 12.0189 14.5659 11.9133 14.2603C12.207 14.3774 12.5104 14.4689 12.8199 14.5336L12.8966 14.6036C13.1846 14.8868 13.3828 15.2485 13.4666 15.6436C13.072 15.5572 12.7115 15.3567 12.4299 15.067L12.4233 15.0703ZM16.0899 13.6703C15.1088 14.0137 14.0547 14.093 13.0333 13.9003C12.8668 13.8679 12.7021 13.8267 12.5399 13.777C12.8287 13.6719 13.1075 13.5413 13.3733 13.387C13.6362 13.3513 13.9012 13.3334 14.1666 13.3336C14.8271 13.3257 15.4834 13.4387 16.1033 13.667L16.0899 13.6703ZM12.6999 11.6036C12.8512 11.4006 13.0172 11.209 13.1966 11.0303C13.8079 10.3948 14.5851 9.94334 15.4399 9.72697C15.2236 10.5818 14.7721 11.359 14.1366 11.9703C13.8301 12.2781 13.4876 12.5478 13.1166 12.7736C12.8178 12.951 12.4989 13.092 12.1666 13.1936C12.4163 12.6905 12.5957 12.1555 12.6999 11.6036ZM11.4999 7.27031C11.9563 8.16422 12.1852 9.15683 12.1666 10.1603C12.1852 11.1638 11.9563 12.1564 11.4999 13.0503C11.0436 12.1564 10.8146 11.1638 10.8333 10.1603C10.8157 9.15907 11.0447 8.16889 11.4999 7.27697V7.27031ZM9.80326 11.0303C9.98263 11.209 10.1486 11.4006 10.2999 11.6036C10.4041 12.1555 10.5836 12.6905 10.8333 13.1936C10.5064 13.0916 10.1931 12.9506 9.89992 12.7736C9.52731 12.5486 9.18364 12.2788 8.87659 11.9703C8.24112 11.359 7.78962 10.5818 7.57326 9.72697C8.42331 9.94562 9.19556 10.397 9.80326 11.0303Z" fill="#4CAF50"/>
<path d="M5.66662 8.33344C4.89662 10.0868 4.49995 11.6668 4.49995 13.0001C4.49995 16.8661 7.63396 20.0001 11.5 20.0001C15.3659 20.0001 18.5 16.8661 18.5 13.0001C18.5 7.75677 12.6666 0.980106 12 0.226773C11.8702 0.0889188 11.6893 0.0107555 11.5 0.0107555C11.3106 0.0107555 11.1297 0.0889188 11 0.226773C10.6666 0.593439 10.0766 1.30344 9.36329 2.25011C8.42195 0.433089 6.30047 -0.4314 4.35727 0.210191C2.41407 0.851782 1.22441 2.80952 1.55005 4.82982C1.8757 6.85012 3.62024 8.33491 5.66662 8.33344ZM9.66662 2.97011C10.4633 1.88344 11.1666 1.06344 11.5 0.666773C11.76 0.960106 17.8333 7.91677 17.8333 13.0001C17.8333 16.4979 14.9978 19.3334 11.5 19.3334C8.00215 19.3334 5.16662 16.4979 5.16662 13.0001C5.16662 11.6668 5.59329 10.0668 6.43329 8.26011C7.59544 8.04421 8.61086 7.34411 9.22592 6.3347C9.84098 5.32529 9.99759 4.10189 9.65662 2.97011H9.66662ZM5.66662 0.666773C7.59962 0.666773 9.16662 2.23378 9.16662 4.16677C9.16662 6.09977 7.59962 7.66677 5.66662 7.66677C3.73362 7.66677 2.16662 6.09977 2.16662 4.16677C2.16846 2.23454 3.73439 0.66861 5.66662 0.666773Z" fill="#1A1A1A"/>
<path d="M3.83317 5.33366H4.49984V6.00033C4.49984 6.36852 4.79831 6.66699 5.1665 6.66699H6.1665C6.53469 6.66699 6.83317 6.36852 6.83317 6.00033V5.33366H7.49984C7.86803 5.33366 8.1665 5.03518 8.1665 4.66699V3.66699C8.1665 3.2988 7.86803 3.00033 7.49984 3.00033H6.83317V2.33366C6.83317 1.96547 6.53469 1.66699 6.1665 1.66699H5.1665C4.79831 1.66699 4.49984 1.96547 4.49984 2.33366V3.00033H3.83317C3.46498 3.00033 3.1665 3.2988 3.1665 3.66699V4.66699C3.1665 5.03518 3.46498 5.33366 3.83317 5.33366ZM3.83317 3.66699H4.83317C5.01727 3.66699 5.1665 3.51775 5.1665 3.33366V2.33366H6.1665V3.33366C6.1665 3.51775 6.31574 3.66699 6.49984 3.66699H7.49984V4.66699H6.49984C6.31574 4.66699 6.1665 4.81623 6.1665 5.00033V6.00033H5.1665V5.00033C5.1665 4.81623 5.01727 4.66699 4.83317 4.66699H3.83317V3.66699Z" fill="#4CAF50"/>
</g>
<defs>
<clipPath id="clip0_548_10541">
<rect width="20" height="20" fill="white"/>
</clipPath>
</defs>
</svg>
