<svg width="22" height="22" viewBox="0 0 22 22" fill="none" xmlns="http://www.w3.org/2000/svg">
<path fill-rule="evenodd" clip-rule="evenodd" d="M12.3951 0.32445C11.5164 -0.10815 10.4836 -0.108151 9.6049 0.32445L0.85289 4.63347C-0.284293 5.19335 -0.2843 6.80664 0.85289 7.36653L9.6049 11.6755C10.4836 12.1082 11.5164 12.1082 12.3951 11.6756L21.1471 7.36653C22.2843 6.80665 22.2843 5.19336 21.1471 4.63347L12.3951 0.32445ZM0.9031 9.6087C1.04236 9.5401 1.20556 9.5401 1.34481 9.6087L9.6049 13.6755C10.4836 14.1081 11.5164 14.1081 12.3951 13.6755L20.6552 9.6087C20.7944 9.5401 20.9576 9.5401 21.0969 9.6087L21.1471 9.6334C22.2843 10.1933 22.2843 11.8066 21.1471 12.3665L12.3951 16.6755C11.5164 17.1081 10.4836 17.1081 9.6049 16.6755L0.85289 12.3665C-0.2843 11.8066 -0.284293 10.1933 0.85289 9.6334L0.9031 9.6087ZM1.34481 14.6088C1.20556 14.5402 1.04236 14.5402 0.9031 14.6088L0.85289 14.6335C-0.284293 15.1934 -0.2843 16.8067 0.85289 17.3666L9.6049 21.6756C10.4836 22.1082 11.5164 22.1082 12.3951 21.6756L21.1471 17.3666C22.2843 16.8067 22.2843 15.1934 21.1471 14.6335L21.0969 14.6088C20.9576 14.5402 20.7944 14.5402 20.6552 14.6088L12.3951 18.6756C11.5164 19.1082 10.4836 19.1082 9.6049 18.6756L1.34481 14.6088Z" fill="#4EAEA0"/>
</svg>
