<svg width="22" height="22" viewBox="0 0 22 22" fill="none" xmlns="http://www.w3.org/2000/svg">
<g clip-path="url(#clip0_591_1081)">
<path d="M19 7.5961C18.947 7.85446 18.9085 8.11701 18.8388 8.37078C18.3915 9.99946 16.9411 11.2299 15.2672 11.4094C13.0554 11.6469 11.0691 10.2011 10.6323 8.0352C10.1825 5.80672 11.6375 3.58952 13.8714 3.0995C16.2323 2.58193 18.5318 4.13673 18.9411 6.52715C18.9595 6.63358 18.9804 6.74002 19 6.84604V7.59568V7.5961ZM14.302 10.4561V9.56119H13.3853V8.62748C13.8405 8.62748 14.2832 8.62873 14.7259 8.62706C15.0258 8.62581 15.2446 8.42755 15.2471 8.16083C15.2492 7.89579 15.0304 7.71839 14.7326 7.68166C14.5108 7.65453 14.2749 7.60319 14.0832 7.49592C13.5808 7.21501 13.3406 6.76172 13.3774 6.18572C13.4121 5.64185 13.7011 5.25701 14.1805 5.00616C14.2314 4.97945 14.3029 4.92477 14.3045 4.88052C14.3154 4.58459 14.3104 4.28824 14.3104 3.99147C13.0967 4.10876 11.577 5.20818 11.501 7.10482C11.4341 8.76939 12.6854 10.2591 14.3024 10.4557L14.302 10.4561ZM15.248 10.4573C16.868 10.2549 18.1238 8.76188 18.0574 7.1211C17.9793 5.18606 16.4316 4.10083 15.2605 3.99356V4.88512H16.1739V5.81465C15.7145 5.81465 15.2668 5.8134 14.8195 5.81507C14.5885 5.81591 14.4127 5.93278 14.3421 6.12436C14.2231 6.44659 14.4557 6.74252 14.8366 6.75338C15.5625 6.77383 16.1772 7.38907 16.1839 8.11074C16.1893 8.72891 15.902 9.16926 15.3515 9.44557C15.3094 9.46686 15.2538 9.5182 15.253 9.55702C15.2446 9.85295 15.2484 10.1493 15.2484 10.4573H15.248Z" fill="#4CAF50"/>
<path d="M6.87022 19V17.7232C6.24335 17.9677 5.60855 18.0938 4.91653 18.0892C4.94952 17.7432 4.98168 17.4055 5.01509 17.0566C4.1794 16.8579 3.53374 16.3662 3 15.6929C3.34455 15.228 3.77513 14.8611 4.30302 14.5777C3.76678 13.7637 3.53081 12.8647 3.52789 11.8825C4.38112 11.8796 5.1788 12.0633 5.94182 12.4778C6.07671 11.3746 6.51231 10.435 7.33797 9.67578C8.15737 10.4275 8.59547 11.3637 8.73245 12.4769C9.48503 12.07 10.284 11.8825 11.1476 11.8809C11.1451 12.3588 11.0933 12.8238 10.9647 13.28C10.8357 13.7379 10.6444 14.1674 10.3729 14.5743C10.9025 14.8536 11.3468 15.2209 11.7156 15.6904C11.1957 16.3253 10.5767 16.8137 9.76986 17.024C9.65793 17.0532 9.65 17.0925 9.66461 17.1947C9.70596 17.4861 9.73102 17.7803 9.76401 18.0896C9.07491 18.0934 8.43844 17.974 7.80823 17.719V19.0004H6.87022V19ZM6.15606 13.8464C5.78228 13.4557 5.34502 13.1848 4.83592 13.0195C4.7691 12.9978 4.70061 12.9815 4.62209 12.9598C4.78497 13.9007 5.44066 14.4771 6.11096 15.0723C5.47448 15.2234 4.82297 15.2267 4.33476 15.6842C4.91151 16.2343 5.59936 16.1905 6.32019 16.0465C6.21077 16.3862 6.11388 16.6876 6.00989 17.0111C6.48224 16.8917 6.87732 16.7005 7.23565 16.4342C7.30999 16.3787 7.36846 16.3708 7.43987 16.4334C7.48623 16.4743 7.54178 16.5052 7.59356 16.5398C7.91389 16.7552 8.26094 16.9092 8.66521 17.0069C8.5608 16.6822 8.46433 16.3816 8.36744 16.0799C8.73287 16.0999 9.08076 16.1512 9.42406 16.1287C9.7803 16.1049 10.0822 15.9083 10.3713 15.6946C9.85631 15.238 9.21399 15.2171 8.56916 15.0735C9.22944 14.4767 9.89515 13.9023 10.053 12.9749C10.033 12.9736 10.0171 12.9682 10.0037 12.9719C9.4654 13.1264 8.97719 13.3664 8.58753 13.7825C8.30479 14.0847 8.01496 14.3807 7.71927 14.6891C7.71092 14.6574 7.70298 14.6436 7.70382 14.6303C7.73222 14.1786 7.75602 13.7266 7.79236 13.2754C7.83036 12.8033 7.79737 12.3388 7.65078 11.8884C7.57185 11.6467 7.46284 11.4146 7.36762 11.1784C7.03644 11.6981 6.87356 12.2428 6.87523 12.8234C6.87648 13.2908 6.92159 13.7583 6.94748 14.2258C6.95542 14.3719 6.96419 14.5176 6.97296 14.6637" fill="#4CAF50"/>
<path d="M4.89985 7.9484V4.91895H9.57652V5.84222H5.84704V7.95382C5.98403 7.80064 6.11976 7.64954 6.24505 7.51013C6.50189 7.76892 6.71697 7.98555 6.9166 8.18715C6.4121 8.69136 5.88338 9.21937 5.36969 9.73276C4.86936 9.23147 4.34147 8.70305 3.82861 8.18965C4.0178 8.00141 4.23622 7.78394 4.46091 7.56064C4.57534 7.68126 4.714 7.82777 4.85265 7.97428C4.86852 7.96551 4.88439 7.95716 4.89985 7.9484Z" fill="#1A1A1A"/>
<path d="M12.4114 16.1446V15.2229H16.1434V14.0471C16.0005 14.1974 15.8623 14.3427 15.7399 14.4712C15.4956 14.2275 15.2768 14.0096 15.0675 13.8009C15.5741 13.2929 16.102 12.7641 16.6216 12.2432C17.1428 12.7649 17.6706 13.2937 18.1902 13.8142C17.9855 14.0175 17.7692 14.2325 17.5366 14.4637C17.41 14.3297 17.2693 14.1811 17.0977 13.9996V16.1446H12.4114Z" fill="#1A1A1A"/>
</g>
<defs>
<clipPath id="clip0_591_1081">
<rect width="16" height="16" fill="white" transform="translate(3 3)"/>
</clipPath>
</defs>
</svg>
