<svg width="23" height="23" viewBox="0 0 23 23" fill="none" xmlns="http://www.w3.org/2000/svg">
<path d="M3.40536 20C3.08809 19.9024 2.98084 19.682 3.00274 19.3649C3.06485 18.4712 3.09345 17.5749 3.18238 16.6839C3.25075 15.9983 3.63461 15.4603 4.15118 15.0141C4.77992 14.4713 5.51904 14.1254 6.29837 13.8668C6.90924 13.6641 7.53351 13.5018 8.15376 13.3284C8.2619 13.2982 8.29318 13.2548 8.30524 13.1399C8.33787 12.8263 8.24358 12.6046 7.99512 12.3842C7.42045 11.875 7.02185 11.2399 6.8145 10.4935C6.79841 10.4358 6.71932 10.38 6.65631 10.3525C6.13303 10.1249 5.77018 9.76083 5.6665 9.1896C5.6236 8.95277 5.59009 8.74565 5.83989 8.20635C5.63344 8.08661 5.40911 7.98992 5.22679 7.84179C5.04536 7.69455 4.87376 7.51493 4.75534 7.31535C4.53817 6.95035 4.7254 6.6195 5.1535 6.59067C5.5311 6.56539 5.91094 6.56583 6.28943 6.56805C6.41858 6.56894 6.47175 6.53035 6.50661 6.40529C6.70502 5.68725 6.91281 4.97188 7.11792 4.25562C7.214 3.92034 7.37085 3.6192 7.62869 3.3766C7.89011 3.13179 8.19576 3.00007 8.56219 3.00184C9.716 3.00583 10.8703 3.01027 12.0241 3.00007C12.5536 2.99563 12.9518 3.21783 13.231 3.64226C13.3624 3.84228 13.4625 4.07157 13.5327 4.30086C13.7458 4.99716 13.942 5.69923 14.1342 6.40174C14.1708 6.53479 14.2271 6.57071 14.3612 6.56894C14.7285 6.56495 15.0972 6.56495 15.464 6.5889C15.9306 6.6195 16.1013 6.95168 15.8729 7.35616C15.6977 7.66617 15.4243 7.87284 15.1159 8.03738C15.0131 8.09237 14.9063 8.1385 14.8085 8.18551C14.8661 8.37089 14.9475 8.54918 14.9738 8.73501C15.0739 9.43397 14.7102 10.0425 14.0224 10.3303C13.8888 10.3862 13.8307 10.4598 13.791 10.5933C13.5582 11.3739 13.0988 12.0103 12.4866 12.5403C12.3753 12.637 12.3203 12.7301 12.3333 12.876C12.3449 13.0073 12.336 13.1403 12.336 13.28C13.8468 13.6805 15.3657 14.046 16.6165 15.113C16.6165 15.0061 16.6147 14.9268 16.6165 14.8474C16.6228 14.591 16.764 14.4314 17.0223 14.4114C17.1983 14.3977 17.3766 14.4087 17.5652 14.4087V12.5722C17.3704 12.5722 17.1769 12.5842 16.9861 12.5691C16.7939 12.554 16.5897 12.5465 16.4159 12.4751C15.9337 12.2773 15.6691 11.8959 15.6589 11.3805C15.6419 10.501 15.6526 9.62113 15.6544 8.74166C15.6544 8.55894 15.75 8.45205 15.9015 8.44718C16.0624 8.44185 16.1625 8.54652 16.1629 8.74211C16.1656 9.59408 16.162 10.446 16.1656 11.298C16.1674 11.7233 16.4235 12.0378 16.7979 12.0626C17.0473 12.079 17.2984 12.0657 17.5768 12.0657C17.5768 11.9948 17.5768 11.9313 17.5768 11.8675C17.5768 10.8607 17.5768 9.85353 17.5768 8.84677C17.5768 8.78601 17.5755 8.72437 17.5835 8.66449C17.6018 8.53188 17.6814 8.45605 17.8163 8.44806C17.9526 8.44008 18.0389 8.51281 18.0733 8.63833C18.0889 8.69554 18.0853 8.75896 18.0853 8.81927C18.0858 9.83712 18.0853 10.8554 18.0858 11.8732C18.0858 11.9327 18.0858 11.9917 18.0858 12.0608C18.3691 12.0608 18.6377 12.0843 18.9004 12.0551C19.2552 12.0156 19.4943 11.7025 19.4952 11.3242C19.497 10.4833 19.4957 9.64242 19.4961 8.80154C19.4961 8.75186 19.4894 8.69997 19.5006 8.65252C19.5327 8.51769 19.619 8.43964 19.7633 8.44895C19.8978 8.45738 19.9818 8.5341 19.9939 8.66671C20.0046 8.78734 19.9979 8.90975 19.9979 9.03171C19.9979 9.78966 19.9997 10.5476 19.9979 11.3056C19.9957 12.056 19.4903 12.5602 18.7315 12.5718C18.526 12.5749 18.3204 12.5722 18.101 12.5722V14.4034C18.2493 14.4034 18.3977 14.4008 18.5461 14.4039C18.8884 14.4114 19.0497 14.5689 19.0501 14.9059C19.0519 16.4382 19.0492 17.971 19.0528 19.5033C19.0533 19.7335 18.9478 19.8865 18.7597 19.9991H3.40536V20ZM6.07628 19.4917H14.5578C14.5636 19.4656 14.5703 19.4501 14.5703 19.4345C14.5712 18.732 14.573 18.0295 14.5703 17.3266C14.5699 17.1465 14.5064 17.0995 14.3017 17.0999C13.2203 17.1035 12.1389 17.107 11.0575 17.1079C10.9753 17.1079 10.8886 17.1013 10.8117 17.0755C10.6794 17.0307 10.6138 16.9279 10.6477 16.7899C10.6875 16.628 10.8157 16.5859 10.969 16.5868C11.5879 16.5895 12.2064 16.5908 12.8253 16.5917C12.8727 16.5917 12.92 16.5859 12.9643 16.5832V13.9697C12.7283 13.9089 12.5044 13.8513 12.2819 13.7936C11.9485 14.7232 11.3149 15.2754 10.3179 15.2745C9.32142 15.2736 8.68866 14.7214 8.35753 13.7958C8.17521 13.8415 7.99423 13.8943 7.81012 13.9298C7.68008 13.955 7.64969 14.0176 7.65059 14.144C7.65729 14.9019 7.65372 15.6599 7.65372 16.4178C7.65372 16.4706 7.65372 16.5238 7.65372 16.5872C8.27977 16.5872 8.88125 16.5872 9.48274 16.5872C9.74594 16.5872 9.87732 16.6702 9.88223 16.8383C9.88715 17.0121 9.75354 17.0977 9.47737 17.0977C8.44064 17.0977 7.40392 17.0977 6.36674 17.0977C6.10398 17.0977 6.07539 17.1261 6.07539 17.3807C6.07539 17.8175 6.07539 18.2548 6.07539 18.6917C6.07539 18.956 6.07539 19.2203 6.07539 19.4917H6.07628ZM7.2493 8.61659C7.2493 9.03038 7.24528 9.47743 7.25154 9.92404C7.25332 10.0606 7.26628 10.2026 7.30471 10.333C7.66042 11.5357 8.44288 12.3575 9.60294 12.8317C10.1374 13.0499 10.6665 13.0033 11.1902 12.7767C12.8213 12.0706 13.6971 10.3964 13.3821 8.61615C12.3641 8.67647 11.3497 8.78379 10.3349 8.78424C9.31337 8.78424 8.29229 8.67824 7.2493 8.61704V8.61659ZM13.3682 5.55997C12.5849 5.55997 11.8163 5.55997 11.0477 5.55997C10.8475 5.55997 10.7375 5.47393 10.7331 5.31959C10.7286 5.15815 10.8439 5.0628 11.049 5.06236C11.7068 5.06147 12.3641 5.06236 13.0219 5.06236C13.0822 5.06236 13.1421 5.06236 13.252 5.06236C13.1193 4.69336 13.0233 4.34078 12.8673 4.01613C12.6961 3.65955 12.386 3.4928 11.9718 3.49679C10.8796 3.50743 9.78705 3.51054 8.69491 3.4959C8.21989 3.48969 7.90083 3.69947 7.72164 4.10927C7.59026 4.40952 7.50982 4.7315 7.40079 5.06236C8.16359 5.06236 8.89332 5.06236 9.62305 5.06236C9.70125 5.06236 9.78035 5.05482 9.85676 5.06635C9.99708 5.08764 10.0771 5.17811 10.0735 5.31737C10.0704 5.45486 9.99261 5.544 9.84738 5.55819C9.79778 5.56307 9.74728 5.56085 9.69678 5.56085C8.9389 5.56085 8.18102 5.55908 7.42269 5.5644C7.36504 5.5644 7.26896 5.60033 7.256 5.64069C7.15859 5.93916 7.0777 6.24252 6.98833 6.55696H13.6529C13.5559 6.2168 13.4625 5.89082 13.3682 5.56085V5.55997ZM5.23304 7.08917C5.21919 7.10646 5.20578 7.1242 5.19193 7.1415C5.34521 7.26923 5.48016 7.43776 5.65622 7.5167C6.03338 7.68657 6.4226 7.84534 6.82299 7.94557C7.67874 8.15934 8.55772 8.21877 9.4376 8.26002C10.8622 8.32699 12.2774 8.25381 13.6784 7.98238C14.1927 7.8826 14.699 7.74467 15.1302 7.42845C15.246 7.34374 15.3385 7.22798 15.4417 7.12642L15.4126 7.08917H5.23304ZM5.56506 19.4913C5.56506 19.4243 5.56506 19.3645 5.56506 19.3046C5.56506 18.6522 5.5673 17.9994 5.56417 17.347C5.56283 17.0809 5.64014 16.8516 5.87698 16.7092C5.97529 16.6502 5.99271 16.5815 5.99182 16.4808C5.98825 15.8892 5.99003 15.2971 5.99003 14.7055C5.99003 14.6522 5.99003 14.5986 5.99003 14.5405C5.41358 14.6886 4.51001 15.2802 4.12884 15.7526C3.87993 16.0608 3.70655 16.4072 3.67393 16.8028C3.61807 17.4805 3.58187 18.1595 3.53898 18.838C3.52557 19.0518 3.51663 19.2656 3.50501 19.4913H5.56551H5.56506ZM16.5959 19.5028C16.6062 19.47 16.6125 19.4598 16.6125 19.4496C16.6138 18.289 16.6147 17.1283 16.6129 15.9677C16.6129 15.922 16.5955 15.8679 16.5673 15.8315C16.0745 15.1889 15.384 14.8345 14.6431 14.5165C14.6431 15.215 14.6418 15.8892 14.6463 16.5628C14.6463 16.6005 14.6834 16.6524 14.7178 16.6733C14.972 16.825 15.0793 17.0476 15.0775 17.3372C15.0735 17.9949 15.0762 18.6526 15.0762 19.3104C15.0762 19.3693 15.0762 19.4283 15.0762 19.4966C15.1253 19.4993 15.1575 19.5024 15.1897 19.5024C15.6566 19.5024 16.1236 19.5024 16.5955 19.5024L16.5959 19.5028ZM8.83389 13.0237C8.74317 13.6898 9.03364 14.2792 9.5882 14.5893C10.1128 14.8829 10.7791 14.8305 11.251 14.458C11.6849 14.1156 11.9351 13.4765 11.8015 13.0299C10.8202 13.6211 9.83397 13.6277 8.83433 13.0237H8.83389ZM17.1241 16.7043H18.5242V14.9276H17.1241V16.7043ZM7.1425 16.5797V14.1169C6.96554 14.1741 6.80512 14.2353 6.63933 14.277C6.52985 14.3045 6.50393 14.36 6.50438 14.4642C6.5084 15.1223 6.50616 15.7801 6.50706 16.4382C6.50706 16.4852 6.51465 16.5322 6.51912 16.5801H7.14295L7.1425 16.5797ZM13.501 16.577H14.1422C14.1422 15.8453 14.1431 15.1268 14.1391 14.4087C14.1391 14.3724 14.0998 14.3156 14.0658 14.3032C13.8844 14.2371 13.6994 14.1821 13.501 14.1187V16.577ZM18.526 18.5165H17.1299V19.4926H18.526V18.5165ZM17.1259 17.9994H18.5215V17.2219H17.1259V17.9994ZM6.73317 9.81538V8.45826C6.66391 8.44141 6.59509 8.43564 6.537 8.40815C6.38104 8.33408 6.30865 8.40549 6.24519 8.54031C6.01908 9.02107 6.22106 9.57722 6.73317 9.81538ZM13.9152 8.45782V9.80385C14.3598 9.63133 14.5958 9.10312 14.4394 8.64853C14.3424 8.36557 14.3156 8.35182 14.0238 8.42988C13.9916 8.43875 13.9594 8.44673 13.9152 8.45782Z" fill="#1A1A1A"/>
<path d="M7.60323 18.5996C7.44373 18.5996 7.28355 18.6082 7.12473 18.5978C6.90778 18.5837 6.7868 18.4592 6.77802 18.2698C6.76923 18.0766 6.89562 17.9356 7.10107 17.9215C7.43494 17.8989 7.77422 17.8982 8.10809 17.9215C8.31287 17.9356 8.43925 18.0766 8.42979 18.271C8.42033 18.461 8.29935 18.5837 8.08241 18.5978C7.92358 18.6082 7.76341 18.5996 7.60391 18.5996H7.60323Z" fill="#4CAF50"/>
<path d="M13.0334 18.5996C12.8739 18.5996 12.7137 18.6082 12.5549 18.5978C12.338 18.5837 12.217 18.4592 12.2082 18.2698C12.1994 18.0766 12.3258 17.9356 12.5312 17.9215C12.8651 17.8989 13.2044 17.8982 13.5383 17.9215C13.743 17.9356 13.8694 18.0766 13.86 18.271C13.8505 18.461 13.7295 18.5837 13.5126 18.5978C13.3538 18.6082 13.1936 18.5996 13.0341 18.5996H13.0334Z" fill="#4CAF50"/>
<path d="M10.3256 11.8882C10.049 11.8785 9.80189 11.7937 9.59857 11.6017C9.47478 11.4846 9.46182 11.3462 9.55969 11.2349C9.65889 11.1223 9.79251 11.1183 9.93103 11.2238C10.2059 11.4341 10.4329 11.4363 10.7028 11.2314C10.8511 11.1187 10.9865 11.1209 11.0866 11.2385C11.1809 11.3494 11.1581 11.501 11.0272 11.6186C10.8283 11.7968 10.5906 11.8771 10.3261 11.8882H10.3256Z" fill="#1A1A1A"/>
<path d="M12.0269 9.23287C12.22 9.32511 12.4059 9.39386 12.5685 9.49808C12.699 9.58146 12.7053 9.73979 12.6203 9.84756C12.5341 9.95711 12.3893 9.98017 12.2642 9.88792C12.1033 9.76906 11.9554 9.76418 11.7932 9.88526C11.6681 9.97839 11.5211 9.95799 11.4353 9.85244C11.3419 9.73713 11.3499 9.5819 11.4907 9.49143C11.6493 9.38987 11.8312 9.32467 12.0269 9.23242V9.23287Z" fill="#1A1A1A"/>
<path d="M8.72976 9.28023C8.82807 9.32946 9.00771 9.39953 9.16367 9.5042C9.29102 9.58979 9.2946 9.75079 9.20121 9.85412C9.10021 9.96544 8.97599 9.98008 8.85846 9.89226C8.69178 9.76808 8.54029 9.76631 8.37316 9.89138C8.25608 9.97919 8.13052 9.96633 8.02908 9.85678C7.93255 9.753 7.94641 9.60931 8.05991 9.50242C8.22123 9.35075 8.41964 9.29043 8.73021 9.27979L8.72976 9.28023Z" fill="#1A1A1A"/>
<path d="M7.40117 5.05957H10.3229H13.2447L13.3848 5.61629H7.26099L7.40117 5.05957Z" fill="#4CAF50"/>
<rect x="17.1238" y="16.6816" width="1.4" height="0.545803" fill="#4CAF50"/>
<rect x="17.1238" y="17.9805" width="1.4" height="0.545803" fill="#4CAF50"/>
</svg>
