<svg width="25" height="25" viewBox="0 0 25 25" fill="none" xmlns="http://www.w3.org/2000/svg">
<g clip-path="url(#clip0_526_9069)">
<path d="M6.98267 4.83809C6.86249 4.83809 6.76124 4.83963 6.65999 4.83809C6.15627 4.82939 5.76199 4.42008 5.76455 3.90996C5.76711 3.41315 6.16445 3.00333 6.6605 3.0023C8.5112 2.99923 10.3624 2.99923 12.2131 3.0023C12.7194 3.00281 13.1162 3.41418 13.1152 3.92275C13.1142 4.42928 12.7153 4.83144 12.2065 4.83809C12.1108 4.83911 12.0152 4.83809 11.8899 4.83809C11.8899 4.91177 11.8899 4.97879 11.8899 5.04582C11.8899 6.50759 11.8925 7.96988 11.8858 9.43165C11.8853 9.57799 11.9375 9.63529 12.0623 9.69464C14.2029 10.7159 15.4829 12.4028 15.8179 14.7466C16.2965 18.0943 13.9697 21.2635 10.6304 21.8887C7.18058 22.5344 3.85146 20.3036 3.13245 16.8649C2.5193 13.9326 4.07851 10.9047 6.82874 9.6885C6.92539 9.64552 6.99392 9.61073 6.99341 9.47617C6.98727 7.96937 6.98932 6.46257 6.98932 4.95628C6.98932 4.92507 6.98574 4.89437 6.98267 4.83809ZM7.60093 4.84781C7.60093 4.93172 7.60093 5.00693 7.60093 5.08163C7.60093 6.63244 7.59787 8.18375 7.60451 9.73455C7.60554 9.95302 7.52065 10.0753 7.32427 10.1556C5.53187 10.8898 4.37461 12.1981 3.83203 14.0523C3.7185 14.4407 3.64333 14.8387 3.64844 15.2583C3.73691 15.2583 3.80646 15.2583 3.87601 15.2583C4.98009 15.2583 6.08365 15.2552 7.18773 15.2614C7.40968 15.2624 7.63366 15.2859 7.85254 15.3217C8.8078 15.4783 9.61375 15.9234 10.3026 16.5983C10.9433 17.2261 11.7114 17.6139 12.6094 17.6727C13.3146 17.7188 14.0244 17.7029 14.7322 17.7034C14.7864 17.7034 14.8687 17.6241 14.8912 17.5643C15.2165 16.6955 15.3505 15.7945 15.2134 14.8776C14.8785 12.6366 13.6654 11.0572 11.5775 10.1608C11.3197 10.0502 11.2783 9.99856 11.2783 9.7192C11.2783 8.1684 11.2783 6.61709 11.2783 5.06629C11.2783 4.99312 11.2783 4.91944 11.2783 4.84781H7.60145H7.60093ZM3.65509 15.8774C3.72054 18.2831 5.59068 20.9483 8.7495 21.3423C11.5008 21.6851 13.7585 19.9844 14.5225 18.3225C14.0592 18.3225 13.6 18.3159 13.1413 18.3236C11.8362 18.3456 10.7286 17.8887 9.79836 16.9779C9.05276 16.2483 8.1476 15.8851 7.10949 15.8738C6.00592 15.8615 4.90184 15.8707 3.79827 15.8712C3.75481 15.8712 3.71134 15.8753 3.65509 15.8779V15.8774ZM9.44294 4.22667C10.3159 4.22667 11.1893 4.22667 12.0623 4.22667C12.1257 4.22667 12.1916 4.23128 12.2525 4.21593C12.4049 4.17755 12.5005 4.07523 12.4985 3.91661C12.4964 3.75852 12.3993 3.65875 12.2464 3.62191C12.1978 3.61014 12.1451 3.61321 12.0945 3.61321C10.3225 3.61321 8.55109 3.61321 6.77914 3.61321C6.74078 3.61321 6.70243 3.61116 6.66459 3.61628C6.49839 3.6393 6.37617 3.77182 6.37821 3.92327C6.38026 4.07625 6.50197 4.20365 6.67072 4.22411C6.72749 4.23077 6.78527 4.22718 6.84255 4.22718C7.70935 4.22718 8.57614 4.22718 9.44294 4.22718V4.22667Z" fill="black"/>
<path d="M18.0306 10.9668C15.8193 10.9689 14.0366 9.19241 14.0361 6.98671C14.0356 4.7856 15.8112 3.00302 18.005 3.00098C20.2172 2.99893 21.9989 4.77435 21.9994 6.98108C21.9999 9.18167 20.2239 10.9653 18.0301 10.9673L18.0306 10.9668ZM18.027 3.6124C16.1773 3.60728 14.6503 5.12892 14.6483 6.97954C14.6457 8.82198 16.1568 10.3436 17.9999 10.3554C19.847 10.3672 21.3801 8.84756 21.3888 6.99745C21.397 5.14836 19.8772 3.61802 18.0275 3.6124H18.027Z" fill="black"/>
<path d="M17.0123 14.0386C17.0173 13.8397 17.1198 13.5786 17.3307 13.367C17.651 13.0457 17.8091 12.6645 17.8094 12.2172C17.8094 12.0834 17.8889 12.0033 18.01 12.0049C18.1298 12.0062 18.2056 12.0869 18.2056 12.2227C18.2056 12.6658 18.3669 13.0408 18.6797 13.3621C19.0812 13.7749 19.1145 14.3834 18.7691 14.7793C18.4947 15.0938 18.0552 15.2077 17.6643 15.0654C17.2641 14.9196 17.01 14.5579 17.012 14.0386H17.0123ZM18.008 13.1626C17.86 13.3439 17.7006 13.5334 17.5492 13.729C17.5027 13.7889 17.4697 13.8628 17.4464 13.9354C17.3496 14.2356 17.4671 14.5286 17.7325 14.6647C17.9864 14.7946 18.2914 14.7317 18.4727 14.5123C18.6514 14.2958 18.6517 13.9755 18.4601 13.7206C18.3141 13.5262 18.154 13.342 18.008 13.1629V13.1626Z" fill="#4CAF50"/>
<path d="M12.8095 13.7339C12.8079 14.5811 12.1227 15.2591 11.2707 15.2575C10.4239 15.256 9.74627 14.5709 9.74781 13.718C9.74934 12.8702 10.4336 12.1933 11.2866 12.1948C12.1344 12.1964 12.811 12.8804 12.8095 13.7339ZM11.2717 12.8073C10.7762 12.8119 10.3584 13.234 10.3599 13.7282C10.3615 14.223 10.7813 14.6436 11.2758 14.6451C11.7765 14.6471 12.2055 14.2138 12.1973 13.7144C12.1892 13.2171 11.7657 12.8027 11.2717 12.8073Z" fill="#4CAF50"/>
<path d="M13.4246 17.0956C12.9097 17.0961 12.5036 16.6899 12.5042 16.1742C12.5047 15.66 12.9127 15.2563 13.4298 15.2583C13.934 15.2604 14.3385 15.6651 14.3405 16.1696C14.3426 16.6858 13.9376 17.0946 13.4246 17.0951V17.0956ZM13.4159 15.8723C13.2574 15.8764 13.1142 16.0258 13.1178 16.1834C13.1219 16.342 13.2717 16.4857 13.4287 16.4817C13.5873 16.4776 13.731 16.3277 13.7269 16.1706C13.7228 16.012 13.5729 15.8682 13.4159 15.8723Z" fill="#4CAF50"/>
<path d="M16.1878 5.82164C16.1597 5.8498 16.1452 5.88881 16.1481 5.92851C16.2059 6.41342 16.432 6.86256 16.7869 7.19733C16.8197 7.23022 16.8539 7.26036 16.8881 7.29188C16.5034 7.28874 16.1252 7.39058 15.7939 7.58647C15.7561 7.61193 15.7334 7.65457 15.7334 7.7002C15.7334 7.74584 15.7561 7.78848 15.7939 7.81393C16.1494 8.02263 16.5569 8.12575 16.9688 8.11127H17.126C17.0216 8.27477 16.9669 8.46523 16.9688 8.65935C16.9688 8.73503 17.03 8.79637 17.1055 8.79637H17.1384C17.4192 8.79013 17.6861 8.67291 17.881 8.47026C17.8988 8.45245 17.9152 8.43327 17.9316 8.41408V9.20744C17.9316 9.28311 17.9929 9.34446 18.0684 9.34446C18.1439 9.34446 18.2052 9.28311 18.2052 9.20744V8.41271C18.2216 8.4319 18.2394 8.45108 18.2572 8.46889C18.4498 8.67089 18.7142 8.78857 18.993 8.79637H19.0203C19.0959 8.79637 19.1571 8.73503 19.1571 8.65935C19.1594 8.46517 19.1047 8.2746 18.9998 8.11127H19.1571C19.5671 8.12471 19.9725 8.02162 20.3265 7.81393C20.3643 7.78848 20.387 7.74584 20.387 7.7002C20.387 7.65457 20.3643 7.61193 20.3265 7.58647C19.9953 7.39058 19.617 7.28874 19.2323 7.29188C19.2665 7.26036 19.3007 7.23022 19.3336 7.19733C19.6905 6.86339 19.9185 6.41416 19.9777 5.92851C19.9807 5.88881 19.9662 5.8498 19.9381 5.82164C19.91 5.79349 19.871 5.77899 19.8314 5.7819C19.3642 5.8356 18.9297 6.04844 18.6005 6.38479C18.6005 6.34369 18.6005 6.30258 18.6005 6.26147C18.6005 5.66132 18.4404 5.10638 18.1628 4.73916C18.1355 4.70701 18.0955 4.68848 18.0534 4.68848C18.0112 4.68848 17.9712 4.70701 17.9439 4.73916C17.6704 5.10638 17.5063 5.66132 17.5063 6.26147V6.38479C17.177 6.04844 16.7425 5.8356 16.2753 5.7819C16.2423 5.7841 16.2112 5.79822 16.1878 5.82164ZM16.1741 7.7002C16.4284 7.60637 16.6978 7.55993 16.9688 7.56318C17.0758 7.56289 17.1827 7.56976 17.2888 7.58373C17.3982 7.64746 17.5131 7.70112 17.6321 7.74405C17.5673 7.76387 17.5016 7.78033 17.4352 7.79338H17.4269C17.0084 7.87324 16.5763 7.8411 16.1741 7.7002ZM17.6786 8.27706C17.5619 8.39549 17.413 8.47696 17.2505 8.51137C17.2859 8.34845 17.3688 8.19969 17.4885 8.08386C17.4978 8.07358 17.5079 8.06397 17.5186 8.05509C17.6458 8.02911 17.7703 7.9915 17.8906 7.94273C17.8479 8.06902 17.7762 8.18352 17.6813 8.27706H17.6786ZM18.4418 8.27706C18.3475 8.18363 18.2759 8.0697 18.2325 7.9441C18.3531 7.99225 18.4775 8.02984 18.6046 8.05646L18.636 8.08523C18.7542 8.20164 18.8355 8.35032 18.8699 8.51274C18.708 8.47722 18.5601 8.39478 18.4445 8.27569L18.4418 8.27706ZM19.9463 7.70157C19.5437 7.84273 19.1112 7.87533 18.6921 7.79612C18.6238 7.78278 18.5562 7.76586 18.4897 7.74542C18.6081 7.70221 18.7226 7.64856 18.8316 7.5851C18.9395 7.57043 19.0482 7.5631 19.1571 7.56318C19.4281 7.55993 19.6974 7.60637 19.9518 7.7002L19.9463 7.70157ZM18.5553 6.85204C18.6174 6.76859 18.6855 6.68981 18.7591 6.61636C19.01 6.35514 19.3288 6.16955 19.6796 6.08061C19.5908 6.432 19.4055 6.75146 19.1448 7.00276C19.019 7.12927 18.8785 7.24014 18.7263 7.33298C18.6037 7.40589 18.4728 7.46385 18.3365 7.50563C18.4389 7.29882 18.5126 7.0789 18.5553 6.85204ZM18.0629 5.07076C18.2502 5.43821 18.3441 5.84624 18.3365 6.25873C18.3441 6.67123 18.2502 7.07926 18.0629 7.44671C17.8757 7.07926 17.7817 6.67123 17.7894 6.25873C17.7822 5.84716 17.8761 5.44013 18.0629 5.0735V5.07076ZM17.3668 6.61636C17.4404 6.68981 17.5085 6.76859 17.5706 6.85204C17.6133 7.0789 17.687 7.29882 17.7894 7.50563C17.6553 7.46369 17.5267 7.40572 17.4064 7.33298C17.2535 7.24049 17.1125 7.12959 16.9865 7.00276C16.7258 6.75146 16.5405 6.432 16.4518 6.08061C16.8006 6.17049 17.1174 6.35602 17.3668 6.61636Z" fill="#4CAF50"/>
</g>
<defs>
<clipPath id="clip0_526_9069">
<rect width="19" height="19" fill="white" transform="translate(3 3)"/>
</clipPath>
</defs>
</svg>
