<svg width="22" height="18" viewBox="0 0 22 18" fill="none" xmlns="http://www.w3.org/2000/svg">
<path d="M20 8.025V16.5C20 16.9 19.85 17.25 19.55 17.55C19.25 17.85 18.9 18 18.5 18H3.47498C3.07498 18 2.72498 17.85 2.42498 17.55C2.12498 17.25 1.97498 16.9 1.97498 16.5V8.025C1.50831 7.625 1.19998 7.13333 1.04998 6.55C0.89998 5.96667 0.916647 5.38333 1.09998 4.8L2.17498 1.425C2.30831 0.975 2.54165 0.625 2.87498 0.375C3.20831 0.125 3.59165 0 4.02498 0H17.85C18.3166 0 18.725 0.129167 19.075 0.3875C19.425 0.645833 19.6666 0.991667 19.8 1.425L20.9 4.8C21.0833 5.38333 21.0958 5.96667 20.9375 6.55C20.7791 7.13333 20.4666 7.625 20 8.025ZM13.25 7.25C13.7333 7.25 14.1416 7.09167 14.475 6.775C14.8083 6.45833 14.9416 6.075 14.875 5.625L14.25 1.5H11.75V5.625C11.75 6.05833 11.8916 6.4375 12.175 6.7625C12.4583 7.0875 12.8166 7.25 13.25 7.25ZM8.57498 7.25C9.04165 7.25 9.43748 7.09167 9.76248 6.775C10.0875 6.45833 10.25 6.075 10.25 5.625V1.5H7.74998L7.12498 5.625C7.05831 6.05833 7.17498 6.4375 7.47498 6.7625C7.77498 7.0875 8.14165 7.25 8.57498 7.25ZM4.02498 7.25C4.42498 7.25 4.77081 7.1125 5.06248 6.8375C5.35415 6.5625 5.52498 6.225 5.57498 5.825L6.22498 1.5H3.72498L2.57498 5.15C2.40831 5.66667 2.47498 6.14583 2.77498 6.5875C3.07498 7.02917 3.49165 7.25 4.02498 7.25ZM17.95 7.25C18.4833 7.25 18.9041 7.03333 19.2125 6.6C19.5208 6.16667 19.5916 5.68333 19.425 5.15L18.275 1.5H15.775L16.425 5.825C16.475 6.225 16.6458 6.5625 16.9375 6.8375C17.2291 7.1125 17.5666 7.25 17.95 7.25Z" fill="#531BD8"/>
</svg>
