<svg width="25" height="25" viewBox="0 0 25 25" fill="none" xmlns="http://www.w3.org/2000/svg">
<path d="M11.8522 10.6597C11.4567 8.88314 11.7759 7.22711 12.493 5.62524C12.7145 5.13117 12.9858 4.65687 13.2478 4.18022C13.3813 3.93719 13.633 3.94237 13.7753 4.18116C14.4063 5.23997 14.9054 6.34917 15.1562 7.55304C15.3654 8.55532 15.3845 9.55713 15.1582 10.5599C15.1533 10.5806 15.1547 10.6023 15.1523 10.6329C15.4221 10.4144 15.6734 10.193 15.9437 9.99563C17.0397 9.19447 18.2808 8.75408 19.6476 8.63398C19.9419 8.60807 20.0797 8.80731 19.9527 9.07625C19.3001 10.4582 18.2843 11.5184 16.9106 12.2611C16.8627 12.287 16.8138 12.3111 16.7669 12.3379C16.7586 12.3426 16.7562 12.3572 16.7596 12.3506C17.1756 12.4783 17.6018 12.5875 18.01 12.7411C18.3023 12.8513 18.5766 13.0114 18.8489 13.1664C19.1182 13.3195 19.1079 13.5536 18.8327 13.6939C17.7749 14.2337 16.6711 14.3378 15.5243 14.0038C15.4793 13.9906 15.4344 13.9775 15.3684 13.9577C15.4231 14.1065 15.4749 14.2351 15.5175 14.366C15.6089 14.6491 15.4622 14.8121 15.1591 14.7805C14.4982 14.7122 13.9517 14.4357 13.4996 13.9275C13.4341 14.001 13.3803 14.0731 13.3148 14.1329C12.888 14.5238 12.3757 14.7334 11.7921 14.7852C11.5418 14.8073 11.3946 14.6463 11.4592 14.4108C11.4988 14.2652 11.5613 14.1249 11.6102 13.9921C11.2744 14.0514 10.9386 14.1296 10.5978 14.1673C9.72331 14.2648 8.90207 14.0825 8.13411 13.6765C7.89605 13.5507 7.89801 13.3214 8.13118 13.1749C8.76667 12.775 9.45788 12.5122 10.2087 12.3977C10.2249 12.3954 10.2395 12.3869 10.285 12.3699C10.2165 12.3304 10.1686 12.3012 10.1193 12.2748C8.73343 11.5372 7.71127 10.4756 7.05966 9.0852C6.92034 8.788 7.06748 8.60289 7.40526 8.63492C8.88399 8.77575 10.1989 9.29385 11.3389 10.2146C11.5061 10.3498 11.664 10.4958 11.8522 10.6597ZM8.82533 13.4132C8.91869 13.4466 8.98469 13.4725 9.05214 13.4937C9.89832 13.7566 10.7357 13.6996 11.5589 13.4085C11.8551 13.3039 12.1367 13.1617 12.4241 13.034C12.5742 12.9676 12.7018 12.9935 12.7922 13.124C12.8792 13.2498 12.8475 13.3699 12.7365 13.4721C12.6837 13.5206 12.6221 13.562 12.5757 13.6157C12.4324 13.7829 12.2946 13.9539 12.1543 14.1239C12.168 14.1366 12.1817 14.1494 12.1953 14.1626C12.2232 14.156 12.2516 14.1517 12.2784 14.1423C12.7052 13.9953 13.0176 13.7241 13.2375 13.344C13.3817 13.0948 13.6247 13.099 13.7757 13.344C13.8378 13.4448 13.8989 13.5479 13.9752 13.6379C14.1947 13.8955 14.4694 14.0721 14.8507 14.1644C14.7803 14.0538 14.7422 13.9723 14.684 13.9073C14.5535 13.7608 14.4171 13.6185 14.2763 13.481C14.1502 13.3576 14.1184 13.2196 14.2025 13.1052C14.2885 12.9879 14.4313 12.9648 14.5945 13.043C14.6493 13.0689 14.7016 13.0995 14.7554 13.1264C15.4529 13.473 16.1833 13.6986 16.9786 13.6675C17.3809 13.652 17.772 13.5766 18.1655 13.4141C18.1024 13.3793 18.0628 13.3548 18.0203 13.335C17.3178 13.003 16.5753 12.8442 15.7932 12.8824C15.514 12.896 15.2374 12.9446 14.9587 12.9709C14.7945 12.9865 14.6913 12.9045 14.6512 12.7538C14.6165 12.6233 14.705 12.4891 14.8526 12.4406C14.9045 12.4236 14.9587 12.4142 15.012 12.402C16.6535 12.019 17.947 11.1496 18.9007 9.81006C19.0253 9.63485 19.1299 9.44692 19.2629 9.2345C18.3239 9.37674 17.4855 9.65604 16.718 10.1219C15.7462 10.712 15.0228 11.525 14.4518 12.474C14.3443 12.653 14.1937 12.7067 14.0451 12.6318C13.8945 12.556 13.8579 12.4029 13.9576 12.2192C14.6776 10.8962 14.9059 9.49591 14.6757 8.02215C14.4992 6.89553 14.0788 5.85227 13.5142 4.83303C13.4771 4.8919 13.4433 4.93288 13.4228 4.97904C13.1691 5.54329 12.8787 6.0953 12.6729 6.67557C12.1587 8.12719 12.0604 9.60423 12.5522 11.0832C12.6871 11.4887 12.8895 11.873 13.0616 12.2668C13.1324 12.4288 13.0894 12.5715 12.9442 12.6436C12.8049 12.7128 12.6656 12.67 12.5693 12.5272C12.5493 12.4976 12.5331 12.466 12.5155 12.4354C11.6655 10.9706 10.4096 9.97727 8.75591 9.45587C8.44355 9.35743 8.11798 9.29809 7.7934 9.21943C7.78802 9.26606 7.78509 9.27265 7.78753 9.27736C7.79975 9.30421 7.81197 9.33106 7.82664 9.35649C8.47581 10.4742 9.38162 11.3446 10.5788 11.9018C11.0676 12.1293 11.6019 12.2663 12.1171 12.4387C12.297 12.499 12.3943 12.6229 12.3586 12.7783C12.3234 12.9304 12.1709 13.0166 11.9891 12.9794C11.4465 12.8687 10.9004 12.8532 10.3529 12.9285C9.82597 13.0011 9.32394 13.1523 8.82533 13.4132Z" fill="#4CAF50"/>
<path d="M7.00637 16.5034C7.25519 16.3569 7.4913 16.2359 7.70785 16.0875C8.33942 15.6556 9.0018 15.2958 9.78002 15.1738C10.3461 15.0848 10.8696 15.227 11.3707 15.4564C11.9847 15.7376 12.6172 15.9552 13.2913 16.0494C13.5499 16.0856 13.8149 16.0885 14.0705 16.1374C14.2885 16.1789 14.5061 16.2467 14.7075 16.3372C14.8316 16.3927 14.9006 16.3744 14.9949 16.2995C15.6377 15.7931 16.305 15.3193 17.0734 15.0014C17.2826 14.9147 17.5114 14.8521 17.7373 14.8248C18.122 14.7786 18.3903 15.0113 18.3571 15.3815C18.3351 15.6259 18.2618 15.8793 18.1498 16.0998C17.8668 16.6588 17.4381 17.1209 17.0065 17.5773C16.3348 18.2866 15.603 18.9328 14.8018 19.5041C13.9253 20.1292 13.6403 20.204 12.54 20.067C11.4474 19.9309 10.3568 19.7844 9.26674 19.6299C9.00277 19.5927 8.81653 19.7335 8.60193 19.8169C8.70165 20.1208 8.60014 20.3403 8.29739 20.4753C7.93858 20.6355 7.58027 20.7966 7.22097 20.9548C7.01957 21.0434 6.8959 21.0047 6.80498 20.8126C6.21495 19.5649 5.62689 18.3158 5.04077 17.0663C4.95327 16.8797 5.00656 16.7516 5.20111 16.6654C5.6044 16.4865 6.00964 16.3108 6.41489 16.1356C6.67739 16.0221 6.78444 16.0611 6.90714 16.3108C6.93305 16.3631 6.96042 16.4144 7.00637 16.5034ZM8.3624 19.3365C8.54131 19.2583 8.70409 19.181 8.87225 19.117C8.94851 19.0882 9.03748 19.0685 9.11765 19.0755C9.31758 19.0925 9.51556 19.1297 9.71452 19.1547C10.8369 19.2955 11.9592 19.4373 13.0821 19.5734C13.4257 19.6148 13.742 19.539 14.0348 19.3482C15.1953 18.5928 16.2111 17.6842 17.0974 16.6433C17.3384 16.3602 17.5266 16.0338 17.7201 15.7164C17.7857 15.609 17.792 15.4686 17.8296 15.3264C17.749 15.3302 17.7109 15.3245 17.6776 15.3344C17.5676 15.3678 17.4552 15.398 17.3511 15.4451C16.6516 15.7588 16.0205 16.1784 15.4075 16.6249C15.2432 16.7446 15.1176 16.8642 15.077 17.0926C14.9954 17.5467 14.6332 17.7709 14.2015 17.8966C13.6682 18.0516 13.1188 18.0586 12.5703 18.0346C12.0839 18.0134 11.598 17.9677 11.1131 17.9239C10.9244 17.907 10.811 17.7699 10.8325 17.6178C10.8555 17.4558 11.0021 17.3682 11.2011 17.3903C11.4489 17.4176 11.6972 17.4454 11.9465 17.4628C12.5546 17.5052 13.1662 17.5495 13.7689 17.4355C13.9947 17.3927 14.2304 17.3088 14.4166 17.1821C14.6508 17.0234 14.6014 16.8279 14.3374 16.7309C14.2528 16.6998 14.1639 16.6744 14.0744 16.6626C13.8153 16.6287 13.5543 16.6066 13.2952 16.5731C12.5278 16.4742 11.8048 16.2373 11.1111 15.9123C10.5079 15.6297 9.89636 15.5986 9.27652 15.8544C9.09761 15.9279 8.91332 15.9961 8.74907 16.0941C8.24899 16.3918 7.75771 16.7031 7.25421 17.014C7.61644 17.7723 7.98502 18.5457 8.3624 19.3365ZM8.04368 20.0048C7.51476 18.8975 6.99122 17.801 6.46572 16.6998C6.18709 16.8228 5.92312 16.9391 5.64742 17.0606C6.17194 18.1722 6.68912 19.2686 7.21169 20.3764C7.49765 20.2488 7.77091 20.1268 8.04368 20.0048Z" fill="#1A1A1A"/>
</svg>
