<svg width="23" height="23" viewBox="0 0 23 23" fill="none" xmlns="http://www.w3.org/2000/svg">
<path fill-rule="evenodd" clip-rule="evenodd" d="M11.9829 17.1692H11.0457C10.9364 17.1692 10.8329 17.1175 10.7754 17.0255L10.1027 16.0537C9.99916 15.9042 10.0394 15.6972 10.1889 15.5937C10.3384 15.4902 10.5454 15.5305 10.6489 15.68L11.2239 16.508H11.8277L12.4027 15.749C12.5119 15.6052 12.7247 15.5765 12.8684 15.6857C13.0122 15.795 13.0409 16.0077 12.9317 16.1515L12.2474 17.0427C12.1842 17.1232 12.0864 17.1692 11.9829 17.1692Z" fill="#4CAF50"/>
<path fill-rule="evenodd" clip-rule="evenodd" d="M6.30201 22.1316C6.11801 22.1316 5.96851 21.9821 5.96851 21.7981V17.8076C5.96851 17.6236 6.11801 17.4741 6.30201 17.4741C6.48601 17.4741 6.63551 17.6236 6.63551 17.8076V21.7981C6.62976 21.9821 6.48026 22.1316 6.30201 22.1316Z" fill="#4CAF50"/>
<path fill-rule="evenodd" clip-rule="evenodd" d="M17.0084 22.1316C16.8244 22.1316 16.6749 21.9821 16.6749 21.7981V17.8076C16.6749 17.6236 16.8244 17.4741 17.0084 17.4741C17.1924 17.4741 17.3419 17.6236 17.3419 17.8076V21.7981C17.3419 21.9821 17.1924 22.1316 17.0084 22.1316Z" fill="#4CAF50"/>
<path fill-rule="evenodd" clip-rule="evenodd" d="M9.60815 16.6459C9.5104 16.6459 9.41265 16.5999 9.3494 16.5194L6.44565 12.8394C6.33065 12.6957 6.3594 12.4887 6.4974 12.3737C6.64115 12.2587 6.84815 12.2874 6.96315 12.4312L9.6829 15.8754L11.2642 14.8749C11.4194 14.7772 11.6207 14.8232 11.7184 14.9784C11.8162 15.1337 11.7702 15.3349 11.6149 15.4384L9.7864 16.5999C9.7289 16.6344 9.66565 16.6459 9.60815 16.6459Z" fill="#1A1A1A"/>
<path fill-rule="evenodd" clip-rule="evenodd" d="M13.2652 16.6462C13.2019 16.6462 13.1444 16.629 13.0869 16.5945L11.2527 15.433C11.0974 15.3352 11.0514 15.1282 11.1492 14.9787C11.2469 14.8235 11.4539 14.7775 11.6034 14.8752L13.1847 15.8757L15.9102 12.42C16.0252 12.2762 16.2322 12.2532 16.3759 12.3625C16.5197 12.4717 16.5427 12.6845 16.4334 12.8282L13.5239 16.514C13.4607 16.606 13.3687 16.6462 13.2652 16.6462Z" fill="#1A1A1A"/>
<path fill-rule="evenodd" clip-rule="evenodd" d="M10.1889 22.1316C10.1717 22.1316 10.1487 22.1316 10.1314 22.1259C9.95317 22.0971 9.83242 21.9246 9.86117 21.7406L10.7179 16.7784C10.7467 16.6001 10.9192 16.4794 11.1032 16.5081C11.2814 16.5369 11.4022 16.7094 11.3734 16.8934L10.5167 21.8556C10.4879 22.0166 10.3499 22.1316 10.1889 22.1316Z" fill="#4CAF50"/>
<path fill-rule="evenodd" clip-rule="evenodd" d="M12.8397 22.1259C12.6787 22.1259 12.5407 22.0109 12.512 21.8499L11.6552 16.8934C11.6265 16.7151 11.7472 16.5426 11.9255 16.5081C12.1037 16.4794 12.2762 16.6001 12.3107 16.7784L13.1675 21.7349C13.1962 21.9131 13.0755 22.0856 12.8972 22.1201C12.8742 22.1259 12.857 22.1259 12.8397 22.1259Z" fill="#4CAF50"/>
<path fill-rule="evenodd" clip-rule="evenodd" d="M15.0936 6.33629C15.0016 6.33629 14.9096 6.29604 14.8464 6.23279C14.7889 6.17529 14.7544 6.10629 14.6911 5.97404C14.5761 5.74404 14.3634 5.31854 13.9206 4.76079C13.7366 4.53079 13.6619 4.45029 13.6101 4.39854C13.5699 4.35829 13.4606 4.25479 13.3054 4.14554C13.1904 4.28354 13.0639 4.39279 12.9144 4.48479C12.4946 4.74929 12.0749 4.73779 11.7414 4.73204H11.7184C11.7069 4.73204 10.6776 4.70904 9.5794 4.78379L9.52765 4.78954C9.1654 4.81254 8.7859 4.84129 8.49265 4.99654C8.20515 5.15179 8.0384 5.46229 7.92915 6.04304C7.90615 6.16954 7.81415 6.27304 7.69915 6.31904C7.54965 6.37079 7.38865 6.31904 7.2909 6.19254C7.0954 5.93379 7.05515 5.57729 7.0264 5.31279V5.30704C6.9919 5.01379 6.8999 4.03054 7.0494 3.67979C7.1299 3.49004 7.36565 2.99554 7.87165 2.51254C8.8664 1.55229 10.5051 1.17279 10.8214 1.10954C11.4424 0.983038 12.0404 0.937039 12.5924 0.971539C12.9776 1.00029 13.3111 1.04629 13.5929 1.12104C13.9609 1.21304 14.2541 1.39704 14.4266 1.64429C14.5186 1.77079 14.5761 1.90879 14.6279 2.02954C14.6796 2.15029 14.7256 2.25954 14.7946 2.32854C14.8809 2.42054 14.9959 2.50104 15.1109 2.58729C15.2431 2.67929 15.3754 2.77704 15.5019 2.90354C15.8124 3.21979 16.1574 3.74304 16.2149 4.27779C16.2666 4.77229 16.0481 5.20354 15.8526 5.52554C15.8296 5.56579 15.7204 5.73254 15.6111 5.89354C15.3811 6.22704 15.2949 6.33629 15.1224 6.35354C15.1166 6.33629 15.1051 6.33629 15.0936 6.33629ZM13.2306 3.39229C13.3916 3.39229 13.5239 3.48429 13.6216 3.55329L13.6331 3.55904C13.8516 3.70854 14.0069 3.85229 14.0759 3.92129C14.1564 3.99604 14.2484 4.09954 14.4439 4.34679C14.7831 4.77804 14.9959 5.13454 15.1396 5.39329C15.2086 5.28979 15.2719 5.19204 15.2949 5.15754C15.4386 4.92179 15.5939 4.61704 15.5651 4.32379C15.5364 4.03629 15.3179 3.63379 15.0419 3.34629C14.9556 3.26004 14.8521 3.18529 14.7371 3.10479C14.5991 3.00704 14.4496 2.90354 14.3174 2.75979C14.1679 2.59879 14.0931 2.42629 14.0241 2.26529C13.9839 2.16754 13.9436 2.07554 13.8919 2.00654C13.7826 1.85704 13.5814 1.78229 13.4319 1.74204C13.1846 1.67879 12.8914 1.63854 12.5464 1.61554C12.0576 1.58104 11.5229 1.62129 10.9594 1.74204C10.1659 1.90879 8.99865 2.32854 8.33165 2.97254C7.90615 3.38079 7.71065 3.79479 7.6589 3.92129C7.6359 3.99604 7.60715 4.32379 7.65315 4.88729C7.77965 4.69754 7.95215 4.53079 8.18215 4.40429C8.6019 4.18004 9.06765 4.15129 9.48165 4.12254L9.5334 4.11679C10.6661 4.03629 11.6896 4.05929 11.7299 4.06504H11.7529C12.0346 4.07079 12.3049 4.07654 12.5579 3.92129C12.6901 3.84079 12.8051 3.72004 12.8914 3.57054C12.9431 3.48429 13.0294 3.42104 13.1329 3.39804C13.1731 3.39229 13.2019 3.39229 13.2306 3.39229ZM13.4721 3.90979C13.4721 3.90979 13.4721 3.91554 13.4721 3.90979V3.90979Z" fill="#1A1A1A"/>
<path fill-rule="evenodd" clip-rule="evenodd" d="M11.5574 12.1151C11.3274 12.1151 11.0629 12.0921 10.7754 12.0288C10.5224 11.9713 9.86118 11.7873 9.21718 11.2526C8.90668 10.9996 8.33743 10.4361 8.01543 9.53905C7.92343 9.2918 7.86593 9.02155 7.83718 8.8433C7.60718 8.7398 7.40018 8.5903 7.22193 8.38905C6.99768 8.1418 6.84243 7.83705 6.77343 7.51505C6.62968 6.85955 6.85393 6.21555 7.38293 5.75555C7.52093 5.6348 7.72793 5.65205 7.84868 5.79005C7.96943 5.92805 7.95218 6.13505 7.81418 6.2558C7.34268 6.6698 7.35993 7.13555 7.41743 7.37705C7.51518 7.8083 7.83718 8.17055 8.22243 8.28555C8.34893 8.32005 8.44093 8.4293 8.45818 8.56155C8.48693 8.75705 8.55018 9.0733 8.63643 9.3263C8.91818 10.1026 9.42993 10.5856 9.63693 10.7523C10.1774 11.1951 10.7122 11.3446 10.9192 11.3906C11.5057 11.5228 11.9944 11.4366 12.1784 11.3906C12.6729 11.2756 13.0064 11.0456 13.1502 10.9478C13.2537 10.8788 13.5239 10.6776 13.7942 10.3556C14.1909 9.8898 14.4784 9.25155 14.6394 8.51555C14.6682 8.3833 14.7717 8.2798 14.9097 8.2568C15.2547 8.1993 15.6054 7.65305 15.6457 7.11255C15.6687 6.82505 15.6054 6.4513 15.2087 6.3248C15.0362 6.2673 14.9384 6.0833 14.9959 5.9108C15.0534 5.7383 15.2374 5.64055 15.4099 5.69805C16.0194 5.89355 16.3529 6.4398 16.3012 7.1643C16.2724 7.5438 16.1344 7.94055 15.9217 8.26255C15.7319 8.5443 15.4962 8.74555 15.2374 8.84905C15.0477 9.61955 14.7314 10.2693 14.2944 10.7811C13.9782 11.1548 13.6734 11.3848 13.5182 11.4941C13.3457 11.6148 12.9374 11.8908 12.3222 12.0403C12.1612 12.0691 11.8909 12.1151 11.5574 12.1151Z" fill="#1A1A1A"/>
<path fill-rule="evenodd" clip-rule="evenodd" d="M9.43568 13.4434C9.38393 13.4434 9.33793 13.4319 9.28618 13.4089C9.11943 13.3284 9.05618 13.1272 9.13668 12.9662C9.24593 12.7477 9.42418 12.3164 9.43568 11.8392C9.44143 11.6494 9.41843 11.5632 9.37818 11.4194C9.36668 11.3792 9.35518 11.3389 9.34368 11.2929C9.29768 11.1147 9.40693 10.9364 9.57943 10.8904C9.75193 10.8444 9.93593 10.9537 9.98193 11.1262C9.99343 11.1664 10.0049 11.2009 10.0107 11.2412C10.0567 11.4022 10.1027 11.5689 10.0969 11.8564C10.0797 12.4602 9.85543 12.9949 9.72893 13.2594C9.67718 13.3802 9.55643 13.4434 9.43568 13.4434Z" fill="#1A1A1A"/>
<path fill-rule="evenodd" clip-rule="evenodd" d="M13.5872 13.5697C13.4722 13.5697 13.3572 13.5065 13.2997 13.403C13.0985 13.0465 12.857 12.4887 12.8455 11.8562C12.8397 11.5687 12.8857 11.402 12.9317 11.241C12.9375 11.2237 12.9432 11.2122 12.9432 11.195C12.995 11.0167 13.1732 10.9132 13.3515 10.965C13.5297 11.0167 13.6332 11.195 13.5815 11.3732C13.5757 11.3905 13.57 11.4077 13.57 11.425C13.5297 11.5687 13.5067 11.655 13.5125 11.8447C13.524 12.3392 13.7252 12.7935 13.8862 13.081C13.9782 13.242 13.9207 13.4432 13.7597 13.5295C13.6965 13.5582 13.639 13.5697 13.5872 13.5697Z" fill="#1A1A1A"/>
<path fill-rule="evenodd" clip-rule="evenodd" d="M20.0272 22.1429H3.0072C2.8232 22.1429 2.67945 21.9934 2.6737 21.8152C2.66795 20.6077 2.72545 17.5832 3.3292 15.6397C3.4902 15.1279 3.67995 14.7082 3.9387 14.3172C4.15145 13.9952 4.77245 13.1787 5.87645 12.6152C6.88845 12.0977 7.8602 12.0229 8.4927 12.0517C8.57319 12.0574 8.64794 12.0862 8.70544 12.1437L11.4424 14.7139L14.3289 12.1379C14.3864 12.0862 14.4612 12.0574 14.5359 12.0517C15.1684 12.0229 16.1402 12.1034 17.1522 12.6152C18.2562 13.1787 18.8772 13.9952 19.0899 14.3172C19.3429 14.7024 19.5384 15.1222 19.6994 15.6397C20.3032 17.5832 20.3607 20.6019 20.3549 21.8152C20.3549 21.9934 20.2054 22.1429 20.0272 22.1429ZM11.4942 21.4759H19.6937C19.6822 20.2799 19.6017 17.5487 19.0669 15.8294C18.9232 15.3694 18.7622 15.0129 18.5379 14.6794C18.3539 14.3977 17.8134 13.6904 16.8532 13.2017C16.0252 12.7819 15.2317 12.6957 14.6797 12.7014L11.6552 15.3982C11.5287 15.5132 11.3332 15.5074 11.2067 15.3924L8.3432 12.7072C7.7912 12.7014 6.9977 12.7877 6.17545 13.2074C5.20945 13.6962 4.6747 14.4034 4.4907 14.6852C4.26645 15.0244 4.10545 15.3752 3.9617 15.8352C3.42695 17.5602 3.34645 20.2857 3.33495 21.4817L11.4942 21.4759Z" fill="#1A1A1A"/>
</svg>
