<svg width="23" height="18" viewBox="0 0 23 18" fill="none" xmlns="http://www.w3.org/2000/svg">
<path d="M22.368 0.160653L1.18082 7.62705C0.840019 7.74705 0.764419 8.04105 1.16882 8.20185L5.72402 10.0271L8.42402 11.1083L21.6048 1.42905C21.7824 1.29945 21.9864 1.54305 21.858 1.68225L12.4128 11.8979V11.9003L11.8704 12.5039L12.5892 12.8903L18.5676 16.1087C18.9168 16.2959 19.3692 16.1411 19.47 15.7079L22.9572 0.677853C23.052 0.266253 22.7796 0.0154531 22.368 0.160653ZM8.40002 17.5943C8.40002 17.8895 8.56682 17.9723 8.79722 17.7635C9.09842 17.4887 12.2172 14.6903 12.2172 14.6903L8.40002 12.7175V17.5943Z" fill="#FFB800"/>
</svg>
