<svg width="23" height="23" viewBox="0 0 23 23" fill="none" xmlns="http://www.w3.org/2000/svg">
<g clip-path="url(#clip0_591_1032)">
<path d="M18.3713 1.00049C16.6361 0.999582 15.0464 1.9699 14.2538 3.51348C13.4613 5.05707 13.5993 6.9143 14.6113 8.3239L11.4997 9.30509L8.38803 8.3239C9.58805 6.64815 9.53475 4.38064 8.25749 2.76308C6.98024 1.14535 4.78687 0.567908 2.87852 1.34641C0.970156 2.12509 -0.19288 4.07225 0.0259486 6.12166C0.244958 8.17107 1.79326 9.82869 3.82309 10.1866L2.8341 11.1752C1.66326 12.346 1.72291 14.3126 2.96663 15.5587C4.3222 16.9168 5.78348 18.3806 7.00145 19.5984C6.8894 20.0349 7.01432 20.4983 7.33087 20.8194L7.34682 20.8354C7.58614 21.0732 7.91048 21.2058 8.24788 21.2036C8.35648 21.2034 8.46472 21.1904 8.57023 21.1643L8.69261 21.2863C8.8866 21.4803 9.13262 21.6137 9.40095 21.6704C9.63301 21.8728 9.93107 21.9834 10.2391 21.981C10.2547 21.981 10.2705 21.9806 10.2862 21.9801C10.6428 21.9665 10.9808 21.8177 11.2315 21.5638L11.4997 21.2957L11.768 21.5638C12.0187 21.8177 12.3567 21.9665 12.7131 21.9799C12.7289 21.9805 12.7445 21.9808 12.7602 21.9808C13.0681 21.9834 13.3661 21.873 13.598 21.6708C13.8664 21.6132 14.1122 21.4795 14.3067 21.2861L14.4298 21.1634C14.8666 21.2754 15.3302 21.151 15.6523 20.8354L15.6687 20.8191C15.9841 20.4974 16.1087 20.0348 15.9973 19.5984C17.2244 18.3717 18.6615 16.9324 20.0327 15.5585C21.2764 14.3122 21.3361 12.3457 20.1652 11.175L19.1763 10.1866C21.5395 9.76922 23.1917 7.6152 22.9821 5.22459C22.7727 2.83415 20.771 1.00031 18.3713 1.00049ZM0.6498 5.62852C0.649619 3.43135 2.43089 1.65009 4.62806 1.65009C6.82522 1.65009 8.60649 3.43135 8.60649 5.62852C8.60649 7.82569 6.82522 9.60678 4.62806 9.60678C2.43197 9.60442 0.652157 7.8246 0.6498 5.62852ZM10.7719 21.1044C10.7694 21.107 10.7665 21.1093 10.7638 21.1119C10.8405 20.9935 10.8965 20.8628 10.9295 20.7253L11.0403 20.8361L10.7719 21.1044ZM15.2094 20.3597L15.1929 20.376C14.9382 20.6307 14.5014 20.6086 14.2197 20.3267L9.52242 15.6294L9.063 16.0888L13.1533 20.1793C13.4349 20.461 13.4568 20.8974 13.2055 21.1488L13.2006 21.1536C13.0772 21.2752 12.9084 21.3394 12.7354 21.3307C12.5434 21.3225 12.3617 21.2417 12.2274 21.1042L8.13729 17.0143L7.67788 17.4737L10.0888 19.8848C10.226 20.0192 10.3069 20.2008 10.3151 20.3928C10.3238 20.566 10.2596 20.7348 10.1377 20.8582L10.1225 20.8735C9.86852 21.1275 9.43267 21.1061 9.15093 20.8256C7.83452 19.5155 5.50591 17.1829 3.42658 15.0996C2.4356 14.1068 2.37577 12.5524 3.29351 11.6346L4.67193 10.2562C5.90205 10.2451 7.07669 9.7433 7.93514 8.86236L10.4193 9.64576L9.04306 10.0798C8.89711 10.1258 8.8032 10.2674 8.81734 10.4197L8.85233 10.7948C8.87028 11.2709 9.08422 11.7186 9.44355 12.0315C9.81195 12.3497 10.296 12.5003 10.7799 12.4477L10.9748 12.4287L15.4696 16.9296C15.7511 17.2116 15.7729 17.648 15.5184 17.9025C15.5174 17.9034 15.5167 17.9043 15.5158 17.9052C15.3925 18.0252 15.2248 18.0885 15.053 18.0798C14.8711 18.0722 14.6982 17.9989 14.5662 17.8737L13.0991 16.4071C11.981 15.2894 11.0152 14.3244 10.9224 14.2306L10.4614 14.6884C10.5551 14.7829 11.5211 15.7487 12.6397 16.8667L14.0859 18.3122L14.0855 18.3126C14.0948 18.3218 14.104 18.3311 14.1136 18.3402C14.5038 18.7301 14.8653 19.0915 15.1601 19.3866C15.442 19.6687 15.464 20.1049 15.2094 20.3597ZM19.5728 15.0996C18.2551 16.4198 16.8767 17.8006 15.6824 18.9946C15.6623 18.9718 15.6416 18.9491 15.6197 18.9274C15.5459 18.8534 15.468 18.7756 15.3862 18.6939C15.6103 18.64 15.815 18.5253 15.9776 18.3621C15.9789 18.3608 15.9801 18.3597 15.9814 18.3585C16.4854 17.8503 16.4626 17.0045 15.9292 16.4706L11.9589 12.4945L12.2209 12.2322C12.3177 12.1352 12.3433 11.9876 12.2847 11.8636C12.226 11.7396 12.0958 11.6658 11.9593 11.6792L10.7165 11.801C10.4104 11.8359 10.1037 11.7416 9.86979 11.5412C9.64353 11.3429 9.51009 11.0595 9.50102 10.7588C9.50102 10.7533 9.50048 10.7479 9.49994 10.7424L9.4887 10.6206L15.0642 8.86236C15.9225 9.7433 17.0971 10.245 18.327 10.2562L19.7055 11.6346C20.6234 12.5524 20.5637 14.1068 19.5728 15.0996ZM18.3713 9.60678C16.1741 9.60678 14.393 7.82569 14.393 5.62852C14.393 3.43135 16.1741 1.65027 18.3713 1.65027C20.5685 1.65027 22.3495 3.43135 22.3495 5.62852C22.3472 7.8246 20.5674 9.60442 18.3713 9.60678Z" fill="black"/>
<path d="M18.2203 8.37475V7.62164C17.8607 7.76591 17.4965 7.84026 17.0995 7.83756C17.1184 7.63346 17.1369 7.43429 17.156 7.22847C16.6766 7.11128 16.3062 6.82126 16 6.42415C16.1977 6.14989 16.4447 5.93348 16.7475 5.76632C16.4399 5.28624 16.3045 4.75593 16.3028 4.17663C16.7923 4.17491 17.2499 4.28324 17.6877 4.52771C17.7651 3.87701 18.015 3.32283 18.4886 2.875C18.9587 3.3184 19.21 3.87061 19.2886 4.52722C19.7204 4.28718 20.1787 4.17663 20.6742 4.17565C20.6727 4.45754 20.643 4.7318 20.5692 5.0009C20.4952 5.27097 20.3855 5.52431 20.2297 5.76435C20.5335 5.92905 20.7884 6.1457 21 6.42267C20.7017 6.79714 20.3466 7.08518 19.8838 7.20927C19.8195 7.2265 19.815 7.24964 19.8234 7.30996C19.8471 7.4818 19.8615 7.65537 19.8804 7.8378C19.4851 7.84002 19.1199 7.76961 18.7584 7.61918V8.375H18.2203V8.37475ZM17.8106 5.33498C17.5961 5.10454 17.3453 4.94476 17.0532 4.84727C17.0149 4.83447 16.9756 4.82487 16.9306 4.81206C17.024 5.36699 17.4002 5.70698 17.7847 6.05806C17.4196 6.14718 17.0458 6.14915 16.7657 6.41898C17.0966 6.74347 17.4912 6.71761 17.9047 6.63268C17.842 6.83308 17.7864 7.01083 17.7267 7.20163C17.9977 7.13122 18.2244 7.01846 18.4299 6.86139C18.4726 6.82865 18.5061 6.82397 18.5471 6.8609C18.5737 6.88503 18.6055 6.90325 18.6352 6.92368C18.819 7.05072 19.0181 7.14156 19.25 7.19917C19.1901 7.00763 19.1348 6.83037 19.0792 6.65237C19.2888 6.66419 19.4884 6.69447 19.6854 6.68118C19.8897 6.66714 20.063 6.55119 20.2288 6.42513C19.9333 6.1558 19.5649 6.14349 19.1949 6.0588C19.5737 5.70674 19.9556 5.36797 20.0462 4.82093C20.0347 4.82019 20.0256 4.81699 20.0179 4.8192C19.7091 4.9103 19.429 5.05186 19.2055 5.29731C19.0433 5.47556 18.877 5.65011 18.7074 5.83205C18.7026 5.81334 18.698 5.80522 18.6985 5.79734C18.7148 5.53095 18.7284 5.26432 18.7493 4.99819C18.7711 4.71974 18.7522 4.44573 18.6681 4.18008C18.6228 4.03753 18.5603 3.90065 18.5056 3.7613C18.3156 4.06782 18.2222 4.3891 18.2232 4.73156C18.2239 5.0073 18.2497 5.28304 18.2646 5.55877C18.2692 5.64494 18.2742 5.73086 18.2792 5.81703" fill="#4CAF50"/>
<path d="M4.22028 8.37475V7.62164C3.86065 7.76591 3.49648 7.84026 3.09948 7.83756C3.11841 7.63346 3.13685 7.43429 3.15602 7.22847C2.6766 7.11128 2.3062 6.82126 2 6.42415C2.19766 6.14989 2.44468 5.93348 2.74752 5.76632C2.43989 5.28624 2.30452 4.75593 2.30284 4.17663C2.79232 4.17491 3.24994 4.28324 3.68767 4.52771C3.76506 3.87701 4.01495 3.32283 4.48862 2.875C4.95869 3.3184 5.21002 3.87061 5.28861 4.52722C5.72035 4.28718 6.17869 4.17663 6.67416 4.17565C6.67272 4.45754 6.64301 4.7318 6.56922 5.0009C6.49518 5.27097 6.38545 5.52431 6.22972 5.76435C6.53352 5.92905 6.78844 6.1457 7 6.42267C6.70171 6.79714 6.34664 7.08518 5.88375 7.20927C5.81954 7.2265 5.81499 7.24964 5.82337 7.30996C5.84709 7.4818 5.86147 7.65537 5.8804 7.8378C5.48507 7.84002 5.11994 7.76961 4.7584 7.61918V8.375H4.22028V8.37475ZM3.81058 5.33498C3.59615 5.10454 3.3453 4.94476 3.05324 4.84727C3.0149 4.83447 2.97561 4.82487 2.93057 4.81206C3.02401 5.36699 3.40016 5.70698 3.7847 6.05806C3.41957 6.14718 3.04581 6.14915 2.76573 6.41898C3.0966 6.74347 3.49121 6.71761 3.90474 6.63268C3.84197 6.83308 3.78638 7.01083 3.72672 7.20163C3.9977 7.13122 4.22435 7.01846 4.42992 6.86139C4.47257 6.82865 4.50611 6.82397 4.54708 6.8609C4.57367 6.88503 4.60554 6.90325 4.63525 6.92368C4.81901 7.05072 5.01811 7.14156 5.25004 7.19917C5.19014 7.00763 5.13479 6.83037 5.07921 6.65237C5.28885 6.66419 5.48843 6.69447 5.68537 6.68118C5.88974 6.66714 6.06296 6.55119 6.22876 6.42513C5.93335 6.1558 5.56486 6.14349 5.19493 6.0588C5.57372 5.70674 5.95563 5.36797 6.04619 4.82093C6.03469 4.82019 6.02559 4.81699 6.01792 4.8192C5.70909 4.9103 5.42901 5.05186 5.20547 5.29731C5.04327 5.47556 4.87699 5.65011 4.70736 5.83205C4.70257 5.81334 4.69802 5.80522 4.6985 5.79734C4.71479 5.53095 4.72845 5.26432 4.74929 4.99819C4.7711 4.71974 4.75217 4.44573 4.66807 4.18008C4.62279 4.03753 4.56026 3.90065 4.50563 3.7613C4.31564 4.06782 4.2222 4.3891 4.22315 4.73156C4.22387 5.0073 4.24975 5.28304 4.2646 5.55877C4.26916 5.64494 4.27419 5.73086 4.27922 5.81703" fill="#4CAF50"/>
</g>
<defs>
<clipPath id="clip0_591_1032">
<rect width="23" height="23" fill="white"/>
</clipPath>
</defs>
</svg>
