<svg width="23" height="27" viewBox="0 0 23 27" fill="none" xmlns="http://www.w3.org/2000/svg">
<g clip-path="url(#clip0_582_813)">
<path d="M21.9998 18.0385C21.911 18.1676 21.8491 18.3347 21.7264 18.4163C21.5675 18.5228 21.3631 18.606 21.1719 18.6203C20.7648 18.6503 20.3538 18.6292 19.9275 18.6292C19.778 19.4423 19.3626 20.09 18.6503 20.5458C18.1095 20.892 17.5062 21.0374 16.8602 20.9916C15.8087 20.9168 14.5485 20.2275 14.2203 18.6292C13.9458 18.6292 13.6669 18.6308 13.388 18.6292C13.1036 18.6271 12.9332 18.4764 12.9348 18.2324C12.9365 17.99 13.1074 17.8446 13.3957 17.843C13.6685 17.8414 13.9408 17.843 14.2099 17.843C14.291 17.5816 14.3677 17.3334 14.4499 17.0694H8.5503C8.62482 17.3139 8.70098 17.5616 8.787 17.843C9.03357 17.843 9.3037 17.8425 9.57438 17.843C9.87684 17.844 10.0582 17.9895 10.0609 18.2319C10.0637 18.4748 9.88067 18.6287 9.5837 18.6298C9.31795 18.6308 9.0522 18.6298 8.77111 18.6298C8.62153 19.445 8.20455 20.0915 7.49224 20.5474C6.94486 20.8978 6.33501 21.0353 5.68133 20.9921C4.39369 20.9073 3.3329 19.9556 3.07373 18.6298C2.87264 18.6298 2.66388 18.6298 2.45511 18.6298C2.23649 18.6298 2.01787 18.6329 1.79924 18.6287C1.3587 18.6213 1.00858 18.2856 1.002 17.863C0.997618 17.5869 1.00091 17.3108 1.00145 17.0346C1.00145 16.8038 1.09296 16.6041 1.27871 16.4666C1.39377 16.3812 1.4135 16.2916 1.4135 16.1667C1.41076 13.2089 1.42391 10.251 1.40254 7.2932C1.39706 6.56125 1.98499 5.99529 2.74881 6.00003C5.90653 6.02058 9.06371 6.00846 12.2214 6.00846C13.0455 6.00846 13.5491 6.49116 13.5502 7.2816C13.5507 7.88656 13.5513 8.49098 13.5518 9.09594C13.5518 9.10858 13.5567 9.12123 13.565 9.16392C13.6307 9.16392 13.7025 9.16392 13.7743 9.16392C14.4236 9.16392 15.0729 9.17445 15.7222 9.16128C16.5084 9.14494 17.0504 9.49906 17.3966 10.152C17.8673 11.0404 18.3374 11.9294 18.7829 12.8289C18.8958 13.0566 19.0256 13.1314 19.2744 13.1119C19.8141 13.0692 20.3226 13.1709 20.7615 13.4961C21.2908 13.8881 21.5768 14.4051 21.5878 15.0517C21.5943 15.4395 21.5834 15.8274 21.5943 16.2152C21.5965 16.2916 21.6574 16.3707 21.7039 16.4407C21.7982 16.582 21.9006 16.7174 21.9998 16.8555V18.039V18.0385ZM12.731 16.2642C12.731 16.181 12.731 16.1167 12.731 16.0529C12.731 13.142 12.731 10.231 12.731 7.32007C12.731 6.93381 12.5891 6.79627 12.1891 6.79627C9.05275 6.79627 5.91694 6.79627 2.78059 6.79627C2.36745 6.79627 2.22992 6.93012 2.22992 7.33167C2.22992 9.71038 2.22992 12.0891 2.22992 14.4678V14.687C2.38717 14.687 2.51648 14.6833 2.64579 14.6881C2.88195 14.6965 3.04688 14.8567 3.05017 15.0743C3.05345 15.3009 2.88579 15.4659 2.63867 15.4738C2.50552 15.478 2.37183 15.4743 2.24087 15.4743V16.2647C2.74113 16.2647 3.23153 16.2716 3.72138 16.2595C3.83097 16.2568 3.96028 16.2094 4.04411 16.1414C5.13998 15.2472 6.71199 15.2482 7.80347 16.143C7.88675 16.2115 8.01771 16.2595 8.12675 16.26C9.58863 16.2674 11.0511 16.2653 12.5129 16.2653C12.5792 16.2653 12.6455 16.2653 12.7316 16.2653L12.731 16.2642ZM13.5639 9.95436V16.2642C13.9869 16.2642 14.3962 16.2568 14.8049 16.2679C14.9797 16.2726 15.1096 16.2268 15.2444 16.1161C16.2027 15.3315 17.6229 15.2314 18.6432 15.9386C19.0229 16.2015 19.3834 16.2979 19.8245 16.2684C20.1347 16.2479 20.447 16.2642 20.7538 16.2642V15.4822C20.1051 15.4464 19.9549 15.3779 19.9549 15.1017C19.9549 15.0106 19.9911 14.9052 20.0459 14.8303C20.2026 14.6185 20.4557 14.7102 20.6787 14.6775C20.6689 14.6454 20.6645 14.6201 20.6535 14.598C20.63 14.5505 20.607 14.5026 20.5774 14.4588C20.3188 14.072 19.9423 13.8966 19.4717 13.8966C17.9276 13.8955 16.3835 13.8966 14.8394 13.896C14.5425 13.896 14.3732 13.7538 14.3721 13.4919C14.3682 12.7098 14.3688 11.9278 14.3721 11.1464C14.3732 10.8982 14.537 10.7453 14.7989 10.7438C15.3523 10.7406 15.9057 10.7427 16.4591 10.7427C16.5523 10.7427 16.6454 10.7427 16.7435 10.7427C16.6186 10.2827 16.2876 9.96806 15.8701 9.95963C15.1063 9.94382 14.3414 9.95489 13.5622 9.95489L13.5639 9.95436ZM7.97223 18.2372C7.97333 17.1616 7.04239 16.2647 5.92352 16.2642C4.80464 16.2632 3.87261 17.1585 3.87206 18.2345C3.87097 19.3095 4.803 20.207 5.92078 20.208C7.03856 20.2091 7.97168 19.3132 7.97278 18.2372H7.97223ZM19.1281 18.2319C19.1254 17.1553 18.1917 16.2611 17.0739 16.2637C15.9545 16.2668 15.0246 17.1643 15.0274 18.2393C15.0307 19.3153 15.9649 20.2106 17.0816 20.208C18.201 20.2054 19.1308 19.3069 19.1281 18.2324V18.2319ZM18.007 13.1035C17.7336 12.5781 17.4777 12.0807 17.212 11.5885C17.1912 11.55 17.0986 11.5326 17.0394 11.5316C16.6778 11.5263 16.3156 11.5289 15.9534 11.5289C15.7035 11.5289 15.4531 11.5289 15.2055 11.5289V13.103H18.007V13.1035ZM3.29564 17.0631H1.83321V17.8325H3.05839C3.13838 17.5732 3.21455 17.325 3.29564 17.0631ZM21.1719 17.0615H19.704C19.7856 17.3255 19.864 17.5785 19.9418 17.8309H21.1719V17.0615V17.0615Z" fill="black"/>
<path d="M4.83113 11.0732C4.59058 10.6268 4.43114 10.1842 4.39881 9.70519C4.3758 9.36424 4.56812 9.19772 4.92373 9.22987C5.43385 9.27624 5.90452 9.43749 6.36204 9.67041C6.46999 8.95637 6.69628 8.30136 7.08257 7.70062C7.31161 7.34492 7.65187 7.34755 7.88255 7.70642C8.26775 8.30557 8.48966 8.96111 8.59322 9.62298C8.98554 9.50283 9.37293 9.38374 9.76086 9.26675C9.80579 9.25305 9.8551 9.252 9.90168 9.24357C10.494 9.13975 10.6332 9.43485 10.5422 9.90754C10.5039 10.1067 10.4534 10.3054 10.3877 10.4977C10.3225 10.689 10.2304 10.8719 10.1647 11.0252C10.5367 11.2286 10.9022 11.4262 11.2649 11.6281C11.3236 11.6607 11.3745 11.7071 11.4244 11.7514C11.643 11.9474 11.6436 12.1925 11.4156 12.3816C10.9844 12.74 10.4852 12.9745 9.93181 13.1025C9.88524 13.1131 9.83867 13.122 9.79264 13.1336C9.77346 13.1383 9.75648 13.1494 9.73127 13.1605C9.77565 13.3186 9.82661 13.473 9.86113 13.6311C9.91866 13.8945 9.8162 14.0558 9.54552 14.1401C9.03595 14.2992 8.52747 14.3066 8.02063 14.1254C7.9894 14.1143 7.95707 14.1074 7.92474 14.0995C7.91926 14.0979 7.91159 14.1027 7.89022 14.1095C7.89022 14.3667 7.89187 14.6286 7.89022 14.8905C7.88803 15.1593 7.7242 15.3316 7.47763 15.3295C7.23161 15.3274 7.07436 15.155 7.07271 14.8831C7.07107 14.627 7.07271 14.3709 7.07271 14.0964C7.01792 14.109 6.97408 14.1148 6.93409 14.1296C6.4267 14.3108 5.91822 14.2992 5.40919 14.138C5.14125 14.0532 5.04372 13.8919 5.1029 13.6242C5.13687 13.4709 5.18728 13.3212 5.23495 13.1526C5.11824 13.1236 5.00098 13.0967 4.88428 13.0656C4.39716 12.936 3.95772 12.7168 3.57143 12.4032C3.30514 12.1872 3.30678 11.94 3.57527 11.7213C3.93909 11.4252 4.35333 11.2149 4.83222 11.0727L4.83113 11.0732ZM7.55051 8.71977C7.46777 8.77668 7.45243 8.78195 7.44804 8.79091C7.42777 8.83939 7.40914 8.88839 7.39161 8.93793C7.22887 9.40166 7.14613 9.87698 7.14449 10.3671C7.14394 10.6484 6.99381 10.8392 6.75436 10.8271C6.62505 10.8202 6.48095 10.7502 6.37848 10.6679C6.06671 10.4176 5.73302 10.2179 5.31659 10.1109C5.41796 10.4893 5.61028 10.7923 5.8437 11.0763C6.03657 11.3114 5.96863 11.6144 5.70343 11.7129C5.62234 11.743 5.53083 11.7519 5.44316 11.7614C5.11112 11.7972 4.73195 11.9269 4.54182 12.0776C4.96646 12.3036 5.4196 12.4038 5.89904 12.3922C6.10671 12.3869 6.27876 12.428 6.37246 12.6261C6.46286 12.8169 6.37958 12.9639 6.25301 13.1094C6.16643 13.2084 6.10068 13.3244 6.01027 13.4556C6.4793 13.4972 6.8245 13.366 7.09901 13.0598C7.37298 12.7542 7.58831 12.7579 7.87105 13.0662C7.92036 13.1204 7.97241 13.1742 8.03104 13.2184C8.29186 13.415 8.58281 13.5035 8.96198 13.444C8.84856 13.2949 8.76089 13.1726 8.665 13.0567C8.55322 12.9218 8.51322 12.779 8.59432 12.6182C8.67431 12.4601 8.80856 12.3938 8.99102 12.3922C9.1817 12.3901 9.37347 12.3837 9.56196 12.3584C9.86825 12.3173 10.1608 12.2309 10.4271 12.0328C10.1176 11.9216 9.80743 11.831 9.49128 11.7651C9.29731 11.725 9.11649 11.6929 9.03266 11.49C8.9554 11.3024 9.04143 11.1638 9.15814 11.0242C9.3806 10.7586 9.55265 10.4672 9.6436 10.1104C9.56415 10.1341 9.50059 10.1405 9.45128 10.1694C9.14499 10.3491 8.83541 10.5251 8.53952 10.7196C8.38555 10.8208 8.23706 10.8729 8.06392 10.7997C7.8968 10.7291 7.82721 10.5894 7.8179 10.4203C7.81187 10.3154 7.82666 10.2079 7.80858 10.1057C7.72968 9.65618 7.64256 9.20826 7.55051 8.71924V8.71977Z" fill="#4CAF50"/>
<path d="M4.69238 18.2299C4.69403 17.5707 5.24196 17.0511 5.9329 17.0537C6.61617 17.0564 7.15533 17.5865 7.1515 18.252C7.14766 18.8991 6.59918 19.4193 5.92085 19.4187C5.23538 19.4187 4.69129 18.8923 4.69238 18.2299V18.2299ZM6.33015 18.2389C6.33234 18.036 6.14221 17.8484 5.93016 17.8431C5.7203 17.8378 5.52195 18.0186 5.51373 18.2231C5.50497 18.4323 5.70496 18.6304 5.92413 18.6288C6.13618 18.6272 6.32851 18.4433 6.3307 18.2389H6.33015Z" fill="#4CAF50"/>
<path d="M15.8489 18.2294C15.8505 17.5707 16.399 17.0511 17.0899 17.0537C17.7732 17.0564 18.3118 17.5865 18.308 18.252C18.3042 18.8986 17.7551 19.4187 17.0768 19.4187C16.3913 19.4187 15.8472 18.8918 15.8489 18.2294V18.2294ZM17.0872 17.8431C16.8773 17.8378 16.679 18.0181 16.6702 18.2225C16.6615 18.4238 16.8461 18.6162 17.0598 18.6283C17.2762 18.6404 17.4845 18.4512 17.4872 18.2394C17.4899 18.037 17.2998 17.8484 17.0878 17.8431H17.0872Z" fill="#4CAF50"/>
</g>
<defs>
<clipPath id="clip0_582_813">
<rect width="21" height="15" fill="white" transform="translate(1 6)"/>
</clipPath>
</defs>
</svg>
