<svg width="20" height="20" viewBox="0 0 20 20" fill="none" xmlns="http://www.w3.org/2000/svg">
<g clip-path="url(#clip0_582_858)">
<path d="M17.7967 2.0339H13.036C12.9987 1.61017 12.8682 0.895593 12.4215 0.436949C12.1387 0.147119 11.7801 0 11.3557 0H7.9662C7.54179 0 7.18315 0.147119 6.90043 0.436949C6.45366 0.895593 6.32315 1.61017 6.28586 2.0339H2.20349C2.01637 2.0339 1.8645 2.18542 1.8645 2.37288C1.8645 2.56034 2.01637 2.71186 2.20349 2.71186H2.89535L3.5445 18.3122C3.55704 18.8959 3.92043 20 5.20823 20H14.792C16.0798 20 16.4431 18.8959 16.4554 18.3193L17.1048 2.71186H17.7967C17.9838 2.71186 18.1357 2.56034 18.1357 2.37288C18.1357 2.18542 17.9838 2.0339 17.7967 2.0339ZM7.38721 0.908814C7.53908 0.753559 7.72857 0.677966 7.9662 0.677966H11.3557C11.5933 0.677966 11.7828 0.753559 11.9347 0.908814C12.2076 1.1878 12.317 1.67864 12.355 2.0339H6.96721C7.00518 1.67864 7.11467 1.1878 7.38721 0.908814ZM15.7777 18.298C15.7757 18.4027 15.7289 19.322 14.792 19.322H5.20823C4.28145 19.322 4.22586 18.401 4.22213 18.2908L3.57365 2.71186H16.4262L15.7777 18.298Z" fill="#1A1A1A"/>
<path d="M6.66323 7.87176C6.61317 7.92192 6.58738 7.9914 6.59255 8.06212C6.69544 8.92579 7.09834 9.72573 7.73076 10.322C7.78925 10.3806 7.85019 10.4343 7.91112 10.4904C7.22566 10.4848 6.55161 10.6662 5.9613 11.0151C5.89393 11.0604 5.85352 11.1364 5.85352 11.2176C5.85352 11.2989 5.89393 11.3749 5.9613 11.4202C6.59492 11.7919 7.32102 11.9756 8.05492 11.9498H8.3352C8.14902 12.241 8.05162 12.5802 8.05492 12.926C8.05492 13.0607 8.16404 13.17 8.29864 13.17H8.35714C8.85755 13.1589 9.33328 12.9501 9.68057 12.5892C9.71226 12.5575 9.74151 12.5233 9.77075 12.4891V13.9022C9.77075 14.0369 9.87987 14.1462 10.0145 14.1462C10.1491 14.1462 10.2582 14.0369 10.2582 13.9022V12.4867C10.2875 12.5208 10.3191 12.555 10.3508 12.5867C10.6941 12.9465 11.1653 13.1561 11.6621 13.17H11.7108C11.8454 13.17 11.9545 13.0607 11.9545 12.926C11.9586 12.5801 11.8611 12.2407 11.6743 11.9498H11.9545C12.6852 11.9737 13.4076 11.7901 14.0384 11.4202C14.1058 11.3749 14.1462 11.2989 14.1462 11.2176C14.1462 11.1364 14.1058 11.0604 14.0384 11.0151C13.4481 10.6662 12.7741 10.4848 12.0886 10.4904C12.1495 10.4343 12.2105 10.3806 12.269 10.322C12.905 9.72721 13.3114 8.92709 13.4169 8.06212C13.4221 7.9914 13.3963 7.92192 13.3462 7.87176C13.2961 7.82164 13.2268 7.7958 13.1561 7.80099C12.3237 7.89664 11.5493 8.27573 10.9626 8.87479C10.9626 8.80158 10.9626 8.72837 10.9626 8.65515C10.9626 7.58623 10.6774 6.59784 10.1827 5.94379C10.134 5.88652 10.0627 5.85352 9.98767 5.85352C9.9126 5.85352 9.84131 5.88652 9.79269 5.94379C9.30523 6.59784 9.01276 7.58623 9.01276 8.65515V8.87479C8.42608 8.27573 7.65169 7.89664 6.81922 7.80099C6.76039 7.80491 6.70497 7.83006 6.66323 7.87176ZM6.63886 11.2176C7.09207 11.0505 7.57199 10.9678 8.05492 10.9736C8.24562 10.9731 8.43615 10.9853 8.62524 11.0102C8.82012 11.1237 9.02487 11.2193 9.23699 11.2957C9.12159 11.331 9.00444 11.3604 8.88602 11.3836H8.8714C8.1256 11.5258 7.35552 11.4686 6.63886 11.2176ZM9.31986 12.2451C9.11188 12.456 8.84661 12.6011 8.55699 12.6624C8.62014 12.3722 8.76771 12.1073 8.98108 11.901C8.99774 11.8827 9.01566 11.8655 9.0347 11.8497C9.26132 11.8034 9.48323 11.7365 9.69764 11.6496C9.62149 11.8745 9.49378 12.0785 9.32473 12.2451H9.31986ZM10.6799 12.2451C10.5118 12.0787 10.3842 11.8758 10.307 11.652C10.5217 11.7378 10.7436 11.8048 10.9699 11.8522L11.0259 11.9034C11.2365 12.1107 11.3815 12.3756 11.4427 12.6648C11.1542 12.6016 10.8906 12.4547 10.6847 12.2426L10.6799 12.2451ZM13.3609 11.2201C12.6435 11.4715 11.8727 11.5296 11.1259 11.3885C11.0041 11.3647 10.8837 11.3346 10.7652 11.2982C10.9763 11.2212 11.1802 11.1257 11.3745 11.0126C11.5667 10.9865 11.7605 10.9735 11.9545 10.9736C12.4375 10.9678 12.9174 11.0505 13.3706 11.2176L13.3609 11.2201ZM10.8821 9.70699C10.9928 9.55836 11.1142 9.41806 11.2453 9.28723C11.6923 8.82198 12.2605 8.49142 12.8856 8.33301C12.7274 8.95887 12.3973 9.52785 11.9326 9.97544C11.7085 10.2008 11.4581 10.3982 11.1868 10.5636C10.9683 10.6934 10.7351 10.7967 10.4922 10.8711C10.6747 10.5027 10.8059 10.1111 10.8821 9.70699ZM10.0047 6.53439C10.3384 7.18886 10.5058 7.91558 10.4922 8.65027C10.5058 9.38496 10.3384 10.1117 10.0047 10.7662C9.67107 10.1117 9.50364 9.38496 9.51728 8.65027C9.50445 7.91723 9.67185 7.19227 10.0047 6.53927V6.53439ZM8.76416 9.28723C8.89531 9.41806 9.01669 9.55836 9.12731 9.70699C9.20352 10.1111 9.33473 10.5027 9.51728 10.8711C9.2783 10.7964 9.04917 10.6931 8.83484 10.5636C8.56239 10.3989 8.31111 10.2013 8.0866 9.97544C7.62196 9.52785 7.29183 8.95887 7.13363 8.33301C7.75517 8.49309 8.31983 8.82354 8.76416 9.28723Z" fill="#4CAF50"/>
</g>
<defs>
<clipPath id="clip0_582_858">
<rect width="20" height="20" fill="white"/>
</clipPath>
</defs>
</svg>
